<svg xmlns="http://www.w3.org/2000/svg" width="408.525" height="339" viewBox="0 0 408.525 339">
  <g id="can-shape-3" transform="translate(-34.201 -45.859)">
    <path id="Path_1" data-name="Path 1" d="M436.578,241.267c-13.43,50.121-50.369,90.822-96.52,115.634s-101.471,33.711-151.611,20.276c-50.217-13.456-93.959-37.171-121.78-70.027-27.8-32.835-39.733-74.826-26.3-124.944S90.96,93.4,137.346,70.591,239.3,40.879,289.451,54.317c50.231,13.46,93.733,35.175,121.31,66.026C438.315,151.167,450.008,191.147,436.578,241.267Z" fill="none" stroke="#ff9a23" stroke-width="1" opacity="0.35"/>
    <path id="Path_2" data-name="Path 2" d="M437,188.859c0,104.106-100.894,196-205,196S38,338.465,38,234.359,141.9,45.859,246,45.859,437,84.753,437,188.859Z" fill="#ff9a23"/>
  </g>
</svg>
