<svg xmlns="http://www.w3.org/2000/svg" width="363.5" height="327.529" viewBox="0 0 363.5 327.529">
  <g id="can-shape-2" transform="translate(-54 -62.235)">
    <path id="Path_1" data-name="Path 1" d="M398.011,145.739c39.577,80.9,13.224,176.1-67.609,215.65-40.482,19.8-92.67,30.97-139.672,27.065s-88.719-22.866-108.452-63.2c-19.772-40.415-20.247-91.4-5.64-137.251s44.269-86.487,84.672-106.253c40.442-19.786,89.744-24,133.882-13.151S378.251,105.347,398.011,145.739Z" fill="none" stroke="#baecdd" stroke-width="1" opacity="0.35"/>
    <path id="Path_2" data-name="Path 2" d="M417.5,225.264c0,90.3-65.7,164.5-156,164.5S54,338.062,54,247.764s88.2-184.5,178.5-184.5S417.5,134.965,417.5,225.264Z" fill="#baecdd"/>
  </g>
</svg>
