<svg width="34" height="34" viewBox="0 0 34 34" fill="none" xmlns="http://www.w3.org/2000/svg">
<path d="M21.1479 20.3309L17.3005 24.1783V7.70409C17.3005 7.26512 16.9648 6.92944 16.5259 6.92944C16.0869 6.92944 15.7512 7.26512 15.7512 7.70409V24.1783L11.9038 20.3309C11.594 20.021 11.1033 20.021 10.8193 20.3309C10.5094 20.6407 10.5094 21.1313 10.8193 21.4154L15.9836 26.5797C16.1386 26.7346 16.3451 26.8121 16.5259 26.8121C16.7066 26.8121 16.9132 26.7346 17.0681 26.5797L22.2324 21.4154C22.5423 21.1055 22.5423 20.6149 22.2324 20.3309C21.9226 20.021 21.4578 20.021 21.1479 20.3309Z" fill="#222222"/>
</svg>
