<svg width="73" height="72" viewBox="0 0 73 72" fill="none" xmlns="http://www.w3.org/2000/svg">
<path d="M29.4976 0L29.8199 1.21658L28.0737 1.67699L29.4608 6.91198L28.1857 7.24815L26.7987 2.01315L25.0617 2.47112L24.7393 1.25454L29.4976 0Z" fill="#797979"/>
<path fill-rule="evenodd" clip-rule="evenodd" d="M20.9113 7.77264L23.2125 9.15228L24.4595 8.46646L21.9442 6.97596C22.1984 6.63294 22.3441 6.25162 22.3814 5.83198C22.4155 5.40678 22.3326 5.0133 22.1327 4.65154C21.8374 4.11725 21.3954 3.76521 20.8069 3.59542C20.2183 3.42562 19.6534 3.48955 19.1123 3.78719L16.769 5.07597L19.9989 10.9197L21.1538 10.2846L20.0325 8.25594L20.9113 7.77264ZM19.4742 7.2458L18.5191 5.51771L19.7075 4.86412C19.9251 4.74445 20.1581 4.72513 20.4066 4.80618C20.6551 4.88723 20.8455 5.04741 20.9778 5.28672C21.1101 5.52604 21.1458 5.77492 21.0849 6.03337C21.021 6.28625 20.8802 6.47253 20.6626 6.5922L19.4742 7.2458Z" fill="#797979"/>
<path fill-rule="evenodd" clip-rule="evenodd" d="M16.7125 13.4975L15.583 12.9197L13.6785 14.7812L14.2346 15.9193L13.2175 16.9134L10.2081 10.5123L11.3754 9.37147L17.7364 12.4967L16.7125 13.4975ZM13.1161 13.6092L14.4267 12.3282L11.8586 11.0213L13.1161 13.6092Z" fill="#797979"/>
<path d="M7.4707 15.7033L6.38692 15.0594L3.86833 19.2774L4.95212 19.9213L5.87152 18.3815L10.5351 21.1525L11.21 20.0222L6.5464 17.2513L7.4707 15.7033Z" fill="#797979"/>
<path d="M8.16195 26.9742C7.96729 27.606 7.66344 28.0946 7.25041 28.44C6.83129 28.7836 6.351 28.9688 5.80952 28.9956L5.51051 27.7271C6.23888 27.6778 6.71536 27.2886 6.93997 26.5596C7.04853 26.2073 7.06414 25.9295 6.98678 25.7263C6.90943 25.523 6.77332 25.3916 6.57844 25.3318C6.35311 25.2627 6.14867 25.3097 5.9651 25.4729C5.77545 25.6341 5.52799 25.9505 5.22274 26.4221C5.0495 26.6815 4.88938 26.8983 4.74235 27.0727C4.5972 27.2409 4.4237 27.4038 4.22187 27.5613C4.01581 27.7109 3.78726 27.8038 3.5362 27.8398C3.28514 27.8759 3.01346 27.8491 2.72114 27.7595C2.1426 27.5821 1.74551 27.2376 1.52988 26.726C1.31004 26.2065 1.28902 25.6582 1.46684 25.0811C1.62593 24.5647 1.89327 24.1513 2.26883 23.841C2.64018 23.5227 3.08488 23.3232 3.60291 23.2427L3.88927 24.4874C3.26256 24.5745 2.86311 24.8975 2.69091 25.4564C2.61042 25.7176 2.60768 25.9428 2.68269 26.132C2.75348 26.3133 2.88326 26.4329 3.07205 26.4908C3.27302 26.5524 3.46271 26.5208 3.64114 26.396C3.81535 26.2632 4.04853 25.9823 4.34068 25.5533C4.46148 25.3776 4.55512 25.2467 4.6216 25.1607C4.68387 25.0668 4.77775 24.9459 4.90324 24.7983C5.02451 24.6426 5.12963 24.5286 5.21861 24.4561C5.30945 24.3776 5.42536 24.2935 5.56632 24.2037C5.70728 24.1139 5.84193 24.0555 5.97027 24.0284C6.10048 23.9951 6.2513 23.9815 6.42274 23.9876C6.58996 23.9856 6.76492 24.0127 6.94762 24.0687C7.53834 24.2498 7.94082 24.6092 8.15505 25.147C8.37116 25.6786 8.37345 26.2877 8.16195 26.9742Z" fill="#797979"/>
<path d="M6.63984 39.9857C6.89135 39.5101 6.98752 38.9432 6.92836 38.2849C6.86407 37.5696 6.63117 37.0066 6.22965 36.5958C5.82756 36.1788 5.31875 35.9977 4.70323 36.0528C4.51286 36.0698 4.34063 36.1107 4.18654 36.1756C4.02553 36.2346 3.89105 36.3041 3.78309 36.3839C3.67456 36.4574 3.57204 36.5623 3.47554 36.6986C3.37904 36.8348 3.30362 36.9564 3.24926 37.0634C3.19434 37.164 3.14023 37.3092 3.08692 37.499C3.0267 37.6831 2.98557 37.8303 2.96351 37.9408C2.93454 38.0454 2.89743 38.2019 2.85217 38.4101C2.74425 38.9175 2.6348 39.2655 2.52382 39.4541C2.40592 39.6369 2.24227 39.7377 2.03286 39.7564C1.83615 39.774 1.67068 39.7122 1.53646 39.5711C1.39532 39.4242 1.31253 39.2146 1.28806 38.9424C1.23573 38.3601 1.48317 37.9104 2.03038 37.5935L1.29366 36.5491C0.844562 36.819 0.508417 37.1713 0.285224 37.606C0.0551167 38.0349 -0.0357597 38.5184 0.0125952 39.0565C0.0666389 39.6578 0.293853 40.1576 0.694237 40.5557C1.08771 40.948 1.58586 41.1172 2.18869 41.0633C2.49328 41.036 2.75496 40.9584 2.97373 40.8304C3.1925 40.7023 3.36894 40.5302 3.50303 40.314C3.6302 40.0921 3.72911 39.8759 3.79974 39.6654C3.86981 39.4485 3.93589 39.1874 3.99799 38.8819C4.10193 38.3303 4.21114 37.944 4.32563 37.7232C4.43377 37.503 4.60523 37.3824 4.84002 37.3614C5.04308 37.3432 5.21892 37.4136 5.36754 37.5726C5.51615 37.7316 5.60696 37.9947 5.63996 38.3618C5.70822 39.1214 5.41453 39.6613 4.75887 39.9816L5.51633 41.0433C6.00748 40.8143 6.38199 40.4618 6.63984 39.9857Z" fill="#797979"/>
<path d="M1.27895 45.3887L4.02973 45.3169L4.31635 46.2762L1.66111 46.6678L1.27895 45.3887Z" fill="#797979"/>
<path d="M4.14744 49.9038L3.03055 50.4887L5.31839 54.8356L6.43528 54.2506L5.60011 52.6638L10.4061 50.1467L9.79308 48.982L4.98705 51.499L4.14744 49.9038Z" fill="#797979"/>
<path d="M13.4654 56.5545L11.6149 54.4329L12.5666 53.6069L15.2827 56.721L10.2359 61.1012L7.55115 58.023L8.50283 57.1971L10.322 59.2827L11.3962 58.3504L9.7339 56.4445L10.6712 55.631L12.3335 57.5369L13.4654 56.5545Z" fill="#797979"/>
<path d="M16.4972 59.5476L18.561 61.0444L15.3689 65.4239L16.4355 66.1975L20.3695 60.8003L17.2391 58.5298L16.4972 59.5476Z" fill="#797979"/>
<path d="M32.799 67.6582C32.5771 67.3692 32.2833 67.1982 31.9176 67.1453C31.5645 67.0941 31.2436 67.1761 30.9548 67.3911C30.665 67.6125 30.4936 67.9055 30.4405 68.2703C30.3893 68.6225 30.4714 68.9427 30.687 69.2308C30.9026 69.5189 31.1869 69.6885 31.54 69.7396C31.9057 69.7926 32.2361 69.712 32.5312 69.4979C32.82 69.2828 32.9901 68.9992 33.0413 68.647C33.0944 68.2822 33.0136 67.9526 32.799 67.6582Z" fill="#797979"/>
<path d="M42.8724 4.31521C43.0679 4.62263 43.3454 4.81882 43.7049 4.90377C44.0521 4.9858 44.3791 4.93242 44.6858 4.74363C44.994 4.54867 45.1906 4.27184 45.2758 3.91315C45.358 3.56683 45.3045 3.24069 45.1153 2.93474C44.926 2.62878 44.6578 2.43479 44.3106 2.35276C43.9511 2.26781 43.6148 2.31899 43.3019 2.50631C42.9952 2.69509 42.8007 2.96264 42.7185 3.30896C42.6333 3.66765 42.6846 4.00307 42.8724 4.31521Z" fill="#797979"/>
<path d="M56.4695 12.1567L58.3928 13.8294L57.5638 14.7779L54.6465 12.2407L59.0427 7.21085L60.0367 8.07539L56.4695 12.1567Z" fill="#797979"/>
<path d="M62.8036 19.3541L61.1481 17.0778L62.3625 16.1989L63.8497 18.2437L64.8552 17.5159L63.3681 15.4711L64.5206 14.637L66.1481 16.8747L67.1692 16.1357L64.7672 12.8332L59.3525 16.7519L61.7825 20.093L62.8036 19.3541Z" fill="#797979"/>
<path d="M71.0054 24.0386L69.8411 24.5229L69.1459 22.86L64.1359 24.9441L63.6283 23.7298L68.6383 21.6458L67.9468 19.9916L69.1111 19.5073L71.0054 24.0386Z" fill="#797979"/>
<path d="M69.5525 29.1023L72.2989 29.273L72.0314 27.9653L69.3519 28.1215L69.5525 29.1023Z" fill="#797979"/>
<path d="M66.043 35.8517C66.0423 35.1907 66.1882 34.6345 66.4808 34.1829C66.7798 33.7314 67.184 33.4132 67.6935 33.2284L68.3541 34.3526C67.6727 34.6139 67.3323 35.1258 67.3331 35.8885C67.3335 36.2571 67.4007 36.5271 67.5347 36.6986C67.6686 36.87 67.8375 36.9556 68.0414 36.9554C68.2772 36.9552 68.4586 36.8501 68.5858 36.6403C68.7194 36.4304 68.8624 36.0553 69.0147 35.5149C69.1036 35.2162 69.1925 34.9618 69.2815 34.752C69.3705 34.5486 69.4881 34.3419 69.6345 34.132C69.7872 33.9285 69.9781 33.7726 70.2074 33.6643C70.4366 33.556 70.7042 33.5017 71.01 33.5014C71.6152 33.5008 72.0965 33.7132 72.4537 34.1387C72.8173 34.5705 72.9994 35.0882 73 35.692C73.0006 36.2322 72.8673 36.7058 72.6001 37.1128C72.3393 37.5262 71.9733 37.8475 71.5021 38.0768L70.8606 36.9716C71.4338 36.7041 71.72 36.278 71.7194 35.6933C71.7191 35.42 71.6552 35.204 71.5276 35.0453C71.4064 34.8928 71.2471 34.8167 71.0495 34.8169C70.8393 34.8172 70.6674 34.9031 70.5338 35.0749C70.4065 35.2529 70.2667 35.5899 70.1143 36.0858C70.0508 36.2892 70 36.4418 69.9619 36.5435C69.9301 36.6516 69.8761 36.7947 69.7999 36.9727C69.73 37.1571 69.6632 37.297 69.5996 37.3924C69.536 37.4941 69.4501 37.6086 69.3419 37.7358C69.2338 37.863 69.1224 37.9585 69.0077 38.0221C68.8931 38.0922 68.753 38.1495 68.5874 38.1942C68.4282 38.2452 68.253 38.2708 68.0619 38.271C67.4439 38.2716 66.9531 38.0465 66.5895 37.5956C66.2259 37.1511 66.0437 36.5698 66.043 35.8517Z" fill="#797979"/>
<path d="M64.851 45.6298C64.4091 45.9375 64.0632 46.3974 63.8134 47.0096C63.5419 47.6748 63.4903 48.2817 63.6585 48.8303C63.8244 49.3848 64.1935 49.7782 64.7659 50.0107C64.9429 50.0825 65.1148 50.1249 65.2815 50.1377C65.4517 50.1588 65.6032 50.1585 65.7358 50.1369C65.8661 50.1212 66.0054 50.0748 66.1537 49.9978C66.3021 49.9208 66.425 49.8472 66.5224 49.777C66.6174 49.7127 66.7322 49.6083 66.8668 49.464C67.0049 49.3279 67.1091 49.2158 67.1794 49.1277C67.2533 49.0479 67.3581 48.9258 67.494 48.7614C67.823 48.3598 68.0801 48.1005 68.2654 47.9836C68.4541 47.875 68.6459 47.8602 68.8406 47.9393C69.0235 48.0136 69.1422 48.1441 69.1967 48.3309C69.2547 48.526 69.232 48.7501 69.1287 49.0032C68.9078 49.5448 68.4813 49.8313 67.8493 49.8629L68.0244 51.1279C68.5476 51.0933 69.0082 50.9338 69.4062 50.6495C69.8078 50.3734 70.1107 49.9852 70.3148 49.4848C70.543 48.9256 70.5706 48.3776 70.3976 47.8407C70.2281 47.3122 69.863 46.9341 69.3024 46.7064C69.0192 46.5914 68.7509 46.5408 68.4976 46.5546C68.2444 46.5685 68.0085 46.6408 67.79 46.7717C67.575 46.9108 67.3878 47.0578 67.2283 47.2126C67.0664 47.3733 66.8878 47.5752 66.6922 47.8183C66.3465 48.2612 66.072 48.5545 65.8688 48.6985C65.6715 48.8448 65.4637 48.8736 65.2454 48.785C65.0565 48.7083 64.9326 48.5654 64.8735 48.3561C64.8144 48.1469 64.8546 47.8715 64.9939 47.5301C65.2821 46.8238 65.7912 46.4781 66.5211 46.4931L66.3355 45.2032C65.7937 45.1823 65.2989 45.3244 64.851 45.6298Z" fill="#797979"/>
<path d="M64.5272 59.0342L63.5046 58.2974L64.5622 56.8369L60.1621 53.6661L60.9343 52.5997L65.3345 55.7704L66.3866 54.3176L67.4091 55.0545L64.5272 59.0342Z" fill="#797979"/>
<path fill-rule="evenodd" clip-rule="evenodd" d="M55.1776 60.3558L54.1037 59.6808L52.9952 60.5875L59.0549 64.2607L60.3185 63.227L57.8873 56.586L56.7862 57.4866L57.2394 58.6693L55.1776 60.3558ZM56.277 61.0468L57.6959 59.8862L58.7195 62.5748L56.277 61.0468Z" fill="#797979"/>
<path fill-rule="evenodd" clip-rule="evenodd" d="M47.2445 63.4368L49.4147 65.0136L50.3328 64.6096L49.3954 62.4902L50.602 61.9592L53.3023 68.0645L50.8541 69.1419C50.2887 69.3908 49.7203 69.4047 49.1491 69.1838C48.5779 68.9628 48.1688 68.5732 47.9219 68.015C47.7548 67.6371 47.707 67.2378 47.7787 66.8173C47.8529 66.4026 48.0318 66.0356 48.3154 65.7163L45.9418 64.0101L47.2445 63.4368ZM51.598 67.4704L50.7996 65.665L49.558 66.2114C49.3306 66.3114 49.174 66.4846 49.0879 66.7308C49.0044 66.9829 49.0179 67.234 49.1285 67.484C49.2391 67.734 49.4146 67.9104 49.6549 68.013C49.8953 68.1156 50.1291 68.1169 50.3565 68.0168L51.598 67.4704Z" fill="#797979"/>
<path d="M39.9608 70.7598L40.1742 72L45.0249 71.1693L44.8114 69.9291L43.0407 70.2323L42.1223 64.8956L40.8225 65.1182L41.7409 70.4549L39.9608 70.7598Z" fill="#797979"/>
</svg>
