<svg width="1600" height="432" viewBox="0 0 1600 432" fill="none" xmlns="http://www.w3.org/2000/svg">
<path d="M666.149 344.64C666.149 326.812 657.074 317.989 645.417 314.72C629.76 310.309 617.714 315.086 612.023 321.6C611.497 304.252 597.829 290.355 580.983 290.355C576.297 290.355 571.863 291.452 567.886 293.395C567.886 293.166 567.909 292.937 567.909 292.686C567.909 274.857 553.989 260.389 536.823 260.389C529.829 260.389 523.383 262.812 518.194 266.88C516.594 250.606 503.36 237.92 487.269 237.92C479.314 237.92 472.092 241.052 466.583 246.149C462.012 234.217 450.834 225.76 437.714 225.76C421.349 225.76 407.954 238.926 406.743 255.612C402.08 252.732 396.663 251.04 390.857 251.04C373.691 251.04 359.771 265.486 359.771 283.337V355.589H666.08V344.64H666.149Z" fill="#45B3E6"/>
<path d="M407.406 147.223H348.937V348.777H407.406V147.223Z" fill="#063EC3"/>
<path d="M446.4 147.223H407.406V348.777H446.4V147.223Z" fill="#3A95EF"/>
<path d="M446.4 139.086H348.937V147.223H446.4V139.086Z" fill="#45B3E6"/>
<path d="M398.377 156.435H395.269V159.246H398.377V156.435Z" fill="#45B3E6"/>
<path d="M389.006 156.435H385.897V159.246H389.006V156.435Z" fill="#45B3E6"/>
<path d="M379.657 156.435H376.549V159.246H379.657V156.435Z" fill="#45B3E6"/>
<path d="M370.309 156.435H367.2V159.246H370.309V156.435Z" fill="#45B3E6"/>
<path d="M398.377 164.892H395.269V167.703H398.377V164.892Z" fill="#45B3E6"/>
<path d="M389.006 164.892H385.897V167.703H389.006V164.892Z" fill="#45B3E6"/>
<path d="M379.657 164.892H376.549V167.703H379.657V164.892Z" fill="#45B3E6"/>
<path d="M370.309 164.892H367.2V167.703H370.309V164.892Z" fill="#45B3E6"/>
<path d="M398.377 173.349H395.269V176.16H398.377V173.349Z" fill="#45B3E6"/>
<path d="M389.006 173.349H385.897V176.16H389.006V173.349Z" fill="#45B3E6"/>
<path d="M379.657 173.349H376.549V176.16H379.657V173.349Z" fill="#45B3E6"/>
<path d="M370.309 173.349H367.2V176.16H370.309V173.349Z" fill="#45B3E6"/>
<path d="M398.377 181.783H395.269V184.595H398.377V181.783Z" fill="#45B3E6"/>
<path d="M389.006 181.783H385.897V184.595H389.006V181.783Z" fill="#45B3E6"/>
<path d="M379.657 181.783H376.549V184.595H379.657V181.783Z" fill="#45B3E6"/>
<path d="M370.309 181.783H367.2V184.595H370.309V181.783Z" fill="#45B3E6"/>
<path d="M398.377 190.24H395.269V193.052H398.377V190.24Z" fill="#45B3E6"/>
<path d="M389.006 190.24H385.897V193.052H389.006V190.24Z" fill="#45B3E6"/>
<path d="M379.657 190.24H376.549V193.052H379.657V190.24Z" fill="#45B3E6"/>
<path d="M370.309 190.24H367.2V193.052H370.309V190.24Z" fill="#45B3E6"/>
<path d="M398.377 198.675H395.269V201.486H398.377V198.675Z" fill="#45B3E6"/>
<path d="M389.006 198.675H385.897V201.486H389.006V198.675Z" fill="#45B3E6"/>
<path d="M379.657 198.675H376.549V201.486H379.657V198.675Z" fill="#45B3E6"/>
<path d="M370.309 198.675H367.2V201.486H370.309V198.675Z" fill="#45B3E6"/>
<path d="M360.96 156.435H357.851V159.246H360.96V156.435Z" fill="#45B3E6"/>
<path d="M360.96 164.892H357.851V167.703H360.96V164.892Z" fill="#45B3E6"/>
<path d="M360.96 173.349H357.851V176.16H360.96V173.349Z" fill="#45B3E6"/>
<path d="M360.96 181.783H357.851V184.595H360.96V181.783Z" fill="#45B3E6"/>
<path d="M360.96 190.24H357.851V193.052H360.96V190.24Z" fill="#45B3E6"/>
<path d="M360.96 198.675H357.851V201.486H360.96V198.675Z" fill="#45B3E6"/>
<path d="M398.377 207.132H395.269V209.943H398.377V207.132Z" fill="#45B3E6"/>
<path d="M389.006 207.132H385.897V209.943H389.006V207.132Z" fill="#45B3E6"/>
<path d="M379.657 207.132H376.549V209.943H379.657V207.132Z" fill="#45B3E6"/>
<path d="M370.309 207.132H367.2V209.943H370.309V207.132Z" fill="#45B3E6"/>
<path d="M398.377 215.566H395.269V218.377H398.377V215.566Z" fill="#45B3E6"/>
<path d="M389.006 215.566H385.897V218.377H389.006V215.566Z" fill="#45B3E6"/>
<path d="M379.657 215.566H376.549V218.377H379.657V215.566Z" fill="#45B3E6"/>
<path d="M370.309 215.566H367.2V218.377H370.309V215.566Z" fill="#45B3E6"/>
<path d="M398.377 224.023H395.269V226.835H398.377V224.023Z" fill="#45B3E6"/>
<path d="M389.006 224.023H385.897V226.835H389.006V224.023Z" fill="#45B3E6"/>
<path d="M379.657 224.023H376.549V226.835H379.657V224.023Z" fill="#45B3E6"/>
<path d="M370.309 224.023H367.2V226.835H370.309V224.023Z" fill="#45B3E6"/>
<path d="M398.377 232.458H395.269V235.269H398.377V232.458Z" fill="#45B3E6"/>
<path d="M389.006 232.458H385.897V235.269H389.006V232.458Z" fill="#45B3E6"/>
<path d="M379.657 232.458H376.549V235.269H379.657V232.458Z" fill="#45B3E6"/>
<path d="M370.309 232.458H367.2V235.269H370.309V232.458Z" fill="#45B3E6"/>
<path d="M398.377 240.915H395.269V243.726H398.377V240.915Z" fill="#45B3E6"/>
<path d="M389.006 240.915H385.897V243.726H389.006V240.915Z" fill="#45B3E6"/>
<path d="M379.657 240.915H376.549V243.726H379.657V240.915Z" fill="#45B3E6"/>
<path d="M370.309 240.915H367.2V243.726H370.309V240.915Z" fill="#45B3E6"/>
<path d="M398.377 249.372H395.269V252.183H398.377V249.372Z" fill="#45B3E6"/>
<path d="M389.006 249.372H385.897V252.183H389.006V249.372Z" fill="#45B3E6"/>
<path d="M379.657 249.372H376.549V252.183H379.657V249.372Z" fill="#45B3E6"/>
<path d="M370.309 249.372H367.2V252.183H370.309V249.372Z" fill="#45B3E6"/>
<path d="M398.377 257.806H395.269V260.618H398.377V257.806Z" fill="#45B3E6"/>
<path d="M389.006 257.806H385.897V260.618H389.006V257.806Z" fill="#45B3E6"/>
<path d="M379.657 257.806H376.549V260.618H379.657V257.806Z" fill="#45B3E6"/>
<path d="M370.309 257.806H367.2V260.618H370.309V257.806Z" fill="#45B3E6"/>
<path d="M360.96 207.132H357.851V209.943H360.96V207.132Z" fill="#45B3E6"/>
<path d="M360.96 215.566H357.851V218.377H360.96V215.566Z" fill="#45B3E6"/>
<path d="M360.96 224.023H357.851V226.835H360.96V224.023Z" fill="#45B3E6"/>
<path d="M360.96 232.458H357.851V235.269H360.96V232.458Z" fill="#45B3E6"/>
<path d="M360.96 240.915H357.851V243.726H360.96V240.915Z" fill="#45B3E6"/>
<path d="M360.96 249.372H357.851V252.183H360.96V249.372Z" fill="#45B3E6"/>
<path d="M360.96 257.806H357.851V260.618H360.96V257.806Z" fill="#45B3E6"/>
<path d="M398.377 257.806H395.269V260.618H398.377V257.806Z" fill="#45B3E6"/>
<path d="M389.006 257.806H385.897V260.618H389.006V257.806Z" fill="#45B3E6"/>
<path d="M379.657 257.806H376.549V260.618H379.657V257.806Z" fill="#45B3E6"/>
<path d="M370.309 257.806H367.2V260.618H370.309V257.806Z" fill="#45B3E6"/>
<path d="M398.377 266.263H395.269V269.075H398.377V266.263Z" fill="#45B3E6"/>
<path d="M389.006 266.263H385.897V269.075H389.006V266.263Z" fill="#45B3E6"/>
<path d="M379.657 266.263H376.549V269.075H379.657V266.263Z" fill="#45B3E6"/>
<path d="M370.309 266.263H367.2V269.075H370.309V266.263Z" fill="#45B3E6"/>
<path d="M398.377 274.697H395.269V277.509H398.377V274.697Z" fill="#45B3E6"/>
<path d="M389.006 274.697H385.897V277.509H389.006V274.697Z" fill="#45B3E6"/>
<path d="M379.657 274.697H376.549V277.509H379.657V274.697Z" fill="#45B3E6"/>
<path d="M370.309 274.697H367.2V277.509H370.309V274.697Z" fill="#45B3E6"/>
<path d="M398.377 283.155H395.269V285.966H398.377V283.155Z" fill="#45B3E6"/>
<path d="M389.006 283.155H385.897V285.966H389.006V283.155Z" fill="#45B3E6"/>
<path d="M379.657 283.155H376.549V285.966H379.657V283.155Z" fill="#45B3E6"/>
<path d="M370.309 283.155H367.2V285.966H370.309V283.155Z" fill="#45B3E6"/>
<path d="M398.377 291.589H395.269V294.4H398.377V291.589Z" fill="#45B3E6"/>
<path d="M389.006 291.589H385.897V294.4H389.006V291.589Z" fill="#45B3E6"/>
<path d="M379.657 291.589H376.549V294.4H379.657V291.589Z" fill="#45B3E6"/>
<path d="M370.309 291.589H367.2V294.4H370.309V291.589Z" fill="#45B3E6"/>
<path d="M398.377 300.046H395.269V302.857H398.377V300.046Z" fill="#45B3E6"/>
<path d="M389.006 300.046H385.897V302.857H389.006V300.046Z" fill="#45B3E6"/>
<path d="M379.657 300.046H376.549V302.857H379.657V300.046Z" fill="#45B3E6"/>
<path d="M370.309 300.046H367.2V302.857H370.309V300.046Z" fill="#45B3E6"/>
<path d="M360.96 257.806H357.851V260.618H360.96V257.806Z" fill="#45B3E6"/>
<path d="M360.96 266.263H357.851V269.075H360.96V266.263Z" fill="#45B3E6"/>
<path d="M360.96 274.697H357.851V277.509H360.96V274.697Z" fill="#45B3E6"/>
<path d="M360.96 283.155H357.851V285.966H360.96V283.155Z" fill="#45B3E6"/>
<path d="M360.96 291.589H357.851V294.4H360.96V291.589Z" fill="#45B3E6"/>
<path d="M360.96 300.046H357.851V302.857H360.96V300.046Z" fill="#45B3E6"/>
<path d="M398.377 308.503H395.269V311.315H398.377V308.503Z" fill="#45B3E6"/>
<path d="M389.006 308.503H385.897V311.315H389.006V308.503Z" fill="#45B3E6"/>
<path d="M379.657 308.503H376.549V311.315H379.657V308.503Z" fill="#45B3E6"/>
<path d="M370.309 308.503H367.2V311.315H370.309V308.503Z" fill="#45B3E6"/>
<path d="M398.377 316.938H395.269V319.749H398.377V316.938Z" fill="#45B3E6"/>
<path d="M389.006 316.938H385.897V319.749H389.006V316.938Z" fill="#45B3E6"/>
<path d="M379.657 316.938H376.549V319.749H379.657V316.938Z" fill="#45B3E6"/>
<path d="M370.309 316.938H367.2V319.749H370.309V316.938Z" fill="#45B3E6"/>
<path d="M398.377 325.395H395.269V328.206H398.377V325.395Z" fill="#45B3E6"/>
<path d="M389.006 325.395H385.897V328.206H389.006V325.395Z" fill="#45B3E6"/>
<path d="M379.657 325.395H376.549V328.206H379.657V325.395Z" fill="#45B3E6"/>
<path d="M370.309 325.395H367.2V328.206H370.309V325.395Z" fill="#45B3E6"/>
<path d="M398.377 333.829H395.269V336.64H398.377V333.829Z" fill="#45B3E6"/>
<path d="M389.006 333.829H385.897V336.64H389.006V333.829Z" fill="#45B3E6"/>
<path d="M379.657 333.829H376.549V336.64H379.657V333.829Z" fill="#45B3E6"/>
<path d="M370.309 333.829H367.2V336.64H370.309V333.829Z" fill="#45B3E6"/>
<path d="M360.96 308.503H357.851V311.315H360.96V308.503Z" fill="#45B3E6"/>
<path d="M360.96 316.938H357.851V319.749H360.96V316.938Z" fill="#45B3E6"/>
<path d="M360.96 325.395H357.851V328.206H360.96V325.395Z" fill="#45B3E6"/>
<path d="M360.96 333.829H357.851V336.64H360.96V333.829Z" fill="#45B3E6"/>
<path d="M1017.92 270.423C1017.92 252.594 1026.99 243.772 1038.65 240.503C1054.31 236.092 1066.35 240.869 1072.05 247.383C1072.57 230.034 1086.24 216.137 1103.09 216.137C1107.77 216.137 1112.21 217.234 1116.18 219.177C1116.18 218.949 1116.16 218.72 1116.16 218.469C1116.16 200.64 1130.08 186.172 1147.25 186.172C1154.24 186.172 1160.69 188.594 1165.87 192.663C1167.47 176.389 1180.71 163.703 1196.8 163.703C1204.75 163.703 1211.98 166.834 1217.49 171.932C1222.06 160 1233.23 151.543 1246.35 151.543C1262.72 151.543 1276.11 164.709 1277.33 181.394C1281.99 178.514 1287.41 176.823 1293.21 176.823C1310.38 176.823 1324.3 191.269 1324.3 209.12V281.372H1017.92V270.423Z" fill="#45B3E6"/>
<path d="M287.749 399.817H348.937V144.732L287.749 105.12V399.817Z" fill="#45B3E6"/>
<path d="M287.451 105.12H226.263V399.817H287.451V105.12Z" fill="#031E5F"/>
<path d="M348.937 160.823H287.749V163.474H348.937V160.823Z" fill="#063EC3"/>
<path d="M348.937 176.914H287.749V179.565H348.937V176.914Z" fill="#063EC3"/>
<path d="M348.937 193.028H287.749V195.68H348.937V193.028Z" fill="#063EC3"/>
<path d="M348.937 209.12H287.749V211.772H348.937V209.12Z" fill="#063EC3"/>
<path d="M348.937 225.211H287.749V227.863H348.937V225.211Z" fill="#063EC3"/>
<path d="M348.937 241.303H287.749V243.954H348.937V241.303Z" fill="#063EC3"/>
<path d="M348.937 257.417H287.749V260.068H348.937V257.417Z" fill="#063EC3"/>
<path d="M348.937 273.508H287.749V276.16H348.937V273.508Z" fill="#063EC3"/>
<path d="M348.937 289.6H287.749V292.252H348.937V289.6Z" fill="#063EC3"/>
<path d="M348.937 305.691H287.749V308.343H348.937V305.691Z" fill="#063EC3"/>
<path d="M348.937 321.806H287.749V324.457H348.937V321.806Z" fill="#063EC3"/>
<path d="M348.937 337.897H287.749V340.548H348.937V337.897Z" fill="#063EC3"/>
<path d="M348.937 353.989H287.749V356.64H348.937V353.989Z" fill="#063EC3"/>
<path d="M348.937 370.08H287.749V372.731H348.937V370.08Z" fill="#063EC3"/>
<path d="M348.937 386.194H287.749V388.845H348.937V386.194Z" fill="#063EC3"/>
<path d="M348.937 144.731H287.749V147.383H348.937V144.731Z" fill="#063EC3"/>
<path d="M37.4629 0H0V350.217H37.4629V0Z" fill="#063EC3"/>
<path d="M37.4628 22.0801H0.159912V28.5715H37.4628V22.0801Z" fill="#063EC3"/>
<path d="M37.4628 44.1372H0.159912V50.6286H37.4628V44.1372Z" fill="#063EC3"/>
<path d="M37.4628 66.2173H0.159912V72.7087H37.4628V66.2173Z" fill="#063EC3"/>
<path d="M37.4628 88.2974H0.159912V94.7888H37.4628V88.2974Z" fill="#063EC3"/>
<path d="M37.4628 110.354H0.159912V116.846H37.4628V110.354Z" fill="#063EC3"/>
<path d="M37.4628 132.435H0.159912V138.926H37.4628V132.435Z" fill="#063EC3"/>
<path d="M37.4628 154.515H0.159912V161.006H37.4628V154.515Z" fill="#063EC3"/>
<path d="M37.4628 176.571H0.159912V183.063H37.4628V176.571Z" fill="#063EC3"/>
<path d="M37.4628 198.651H0.159912V205.143H37.4628V198.651Z" fill="#063EC3"/>
<path d="M37.4628 220.731H0.159912V227.223H37.4628V220.731Z" fill="#063EC3"/>
<path d="M37.4628 242.812H0.159912V249.303H37.4628V242.812Z" fill="#063EC3"/>
<path d="M37.4628 264.869H0.159912V271.36H37.4628V264.869Z" fill="#063EC3"/>
<path d="M97.7829 0H37.4629V350.217H97.7829V0Z" fill="white"/>
<path d="M72.3428 22.0801H60.8228V28.5715H72.3428V22.0801Z" fill="#45B3E6"/>
<path d="M56.0227 22.0801H44.5027V28.5715H56.0227V22.0801Z" fill="#45B3E6"/>
<path d="M88.6628 22.0801H77.1428V28.5715H88.6628V22.0801Z" fill="#45B3E6"/>
<path d="M56.0227 44.1372H44.5027V50.6286H56.0227V44.1372Z" fill="#45B3E6"/>
<path d="M88.6628 44.1372H77.1428V50.6286H88.6628V44.1372Z" fill="#45B3E6"/>
<path d="M72.3428 44.1372H60.8228V50.6286H72.3428V44.1372Z" fill="#45B3E6"/>
<path d="M56.0227 66.2173H44.5027V72.7087H56.0227V66.2173Z" fill="#45B3E6"/>
<path d="M88.6628 66.2173H77.1428V72.7087H88.6628V66.2173Z" fill="#45B3E6"/>
<path d="M72.3428 66.2173H60.8228V72.7087H72.3428V66.2173Z" fill="#45B3E6"/>
<path d="M88.6628 88.2974H77.1428V94.7888H88.6628V88.2974Z" fill="#45B3E6"/>
<path d="M56.0227 88.2974H44.5027V94.7888H56.0227V88.2974Z" fill="#45B3E6"/>
<path d="M72.3428 88.2974H60.8228V94.7888H72.3428V88.2974Z" fill="#45B3E6"/>
<path d="M72.3428 110.354H60.8228V116.846H72.3428V110.354Z" fill="#45B3E6"/>
<path d="M56.0227 110.354H44.5027V116.846H56.0227V110.354Z" fill="#45B3E6"/>
<path d="M88.6628 110.354H77.1428V116.846H88.6628V110.354Z" fill="#45B3E6"/>
<path d="M88.6628 132.435H77.1428V138.926H88.6628V132.435Z" fill="#45B3E6"/>
<path d="M56.0227 132.435H44.5027V138.926H56.0227V132.435Z" fill="#45B3E6"/>
<path d="M72.3428 132.435H60.8228V138.926H72.3428V132.435Z" fill="#45B3E6"/>
<path d="M88.6628 154.515H77.1428V161.006H88.6628V154.515Z" fill="#45B3E6"/>
<path d="M72.3428 154.515H60.8228V161.006H72.3428V154.515Z" fill="#45B3E6"/>
<path d="M56.0227 154.515H44.5027V161.006H56.0227V154.515Z" fill="#45B3E6"/>
<path d="M88.6628 176.571H77.1428V183.063H88.6628V176.571Z" fill="#45B3E6"/>
<path d="M56.0227 176.571H44.5027V183.063H56.0227V176.571Z" fill="#45B3E6"/>
<path d="M72.3428 176.571H60.8228V183.063H72.3428V176.571Z" fill="#45B3E6"/>
<path d="M56.0227 198.651H44.5027V205.143H56.0227V198.651Z" fill="#45B3E6"/>
<path d="M72.3428 198.651H60.8228V205.143H72.3428V198.651Z" fill="#45B3E6"/>
<path d="M88.6628 198.651H77.1428V205.143H88.6628V198.651Z" fill="#45B3E6"/>
<path d="M72.3428 220.731H60.8228V227.223H72.3428V220.731Z" fill="#45B3E6"/>
<path d="M88.6628 220.731H77.1428V227.223H88.6628V220.731Z" fill="#45B3E6"/>
<path d="M56.0227 220.731H44.5027V227.223H56.0227V220.731Z" fill="#45B3E6"/>
<path d="M56.0227 242.812H44.5027V249.303H56.0227V242.812Z" fill="#45B3E6"/>
<path d="M72.3428 242.812H60.8228V249.303H72.3428V242.812Z" fill="#45B3E6"/>
<path d="M88.6628 242.812H77.1428V249.303H88.6628V242.812Z" fill="#45B3E6"/>
<path d="M88.6628 264.869H77.1428V271.36H88.6628V264.869Z" fill="#45B3E6"/>
<path d="M56.0227 264.869H44.5027V271.36H56.0227V264.869Z" fill="#45B3E6"/>
<path d="M72.3428 264.869H60.8228V271.36H72.3428V264.869Z" fill="#45B3E6"/>
<path d="M226.263 79.0171V63.1313H146.812V79.0171H141.897V431.977H226.011V79.0171H226.263Z" fill="#063EC3"/>
<path d="M221.12 79.0171H146.812H141.897V431.977H226.011V79.0171H221.12Z" fill="#063EC3"/>
<path d="M192.914 63.1313H97.783V431.977H192.914V63.1313Z" fill="#3A95EF"/>
<path d="M192.914 63.1313H97.783V79.0171H192.914V63.1313Z" fill="#063EC3"/>
<path d="M124.366 101.326H115.612V117.714H124.366V101.326Z" fill="#45B3E6"/>
<path d="M141.28 101.326H132.526V117.714H141.28V101.326Z" fill="#45B3E6"/>
<path d="M158.172 101.326H149.417V117.714H158.172V101.326Z" fill="#45B3E6"/>
<path d="M175.086 101.326H166.332V117.714H175.086V101.326Z" fill="#45B3E6"/>
<path d="M124.366 129.646H115.612V146.035H124.366V129.646Z" fill="#45B3E6"/>
<path d="M141.28 129.646H132.526V146.035H141.28V129.646Z" fill="#45B3E6"/>
<path d="M158.172 129.646H149.417V146.035H158.172V129.646Z" fill="#45B3E6"/>
<path d="M175.086 129.646H166.332V146.035H175.086V129.646Z" fill="#45B3E6"/>
<path d="M124.366 157.943H115.612V174.331H124.366V157.943Z" fill="#45B3E6"/>
<path d="M141.28 157.943H132.526V174.331H141.28V157.943Z" fill="#45B3E6"/>
<path d="M158.172 157.943H149.417V174.331H158.172V157.943Z" fill="#45B3E6"/>
<path d="M175.086 157.943H166.332V174.331H175.086V157.943Z" fill="#45B3E6"/>
<path d="M124.366 186.263H115.612V202.651H124.366V186.263Z" fill="#45B3E6"/>
<path d="M141.28 186.263H132.526V202.651H141.28V186.263Z" fill="#45B3E6"/>
<path d="M158.172 186.263H149.417V202.651H158.172V186.263Z" fill="#45B3E6"/>
<path d="M175.086 186.263H166.332V202.651H175.086V186.263Z" fill="#45B3E6"/>
<path d="M56.8231 256.549L28.4116 227.04H117.92L146.332 256.549H56.8231Z" fill="#063EC3"/>
<path d="M28.4571 227.017L0 256.526V350.148H56.9143V256.526L28.4571 227.017Z" fill="#3A95EF"/>
<path d="M146.308 256.548H56.8228V367.748H146.308V256.548Z" fill="#45B3E6"/>
<path d="M85.1657 270.309H78.6057V274.811H85.1657V270.309Z" fill="white"/>
<path d="M85.1657 283.817H78.6057V288.32H85.1657V283.817Z" fill="white"/>
<path d="M104.868 270.309H98.3083V274.811H104.868V270.309Z" fill="white"/>
<path d="M104.868 283.817H98.3083V288.32H104.868V283.817Z" fill="white"/>
<path d="M124.549 270.309H117.989V274.811H124.549V270.309Z" fill="white"/>
<path d="M124.549 283.817H117.989V288.32H124.549V283.817Z" fill="white"/>
<path d="M85.1657 297.326H78.6057V301.829H85.1657V297.326Z" fill="white"/>
<path d="M104.868 297.326H98.3083V301.829H104.868V297.326Z" fill="white"/>
<path d="M124.549 297.326H117.989V301.829H124.549V297.326Z" fill="white"/>
<path d="M21.8515 270.309H15.2915V274.811H21.8515V270.309Z" fill="#45B3E6"/>
<path d="M21.8515 283.817H15.2915V288.32H21.8515V283.817Z" fill="#45B3E6"/>
<path d="M41.5314 270.309H34.9714V274.811H41.5314V270.309Z" fill="#45B3E6"/>
<path d="M41.5314 283.817H34.9714V288.32H41.5314V283.817Z" fill="#45B3E6"/>
<path d="M21.8515 297.326H15.2915V301.829H21.8515V297.326Z" fill="#45B3E6"/>
<path d="M41.5314 297.326H34.9714V301.829H41.5314V297.326Z" fill="#45B3E6"/>
<path d="M371.406 295.703L396.8 255.794H251.771L226.377 295.703H371.406Z" fill="#3A95EF"/>
<path d="M396.8 255.794L422.171 295.703V402.492H371.428V295.703L396.8 255.794Z" fill="white"/>
<path d="M371.406 295.703H226.377V402.423H371.406V295.703Z" fill="#45B3E6"/>
<path d="M60.96 336.617C82.4229 341.965 89.7143 329.348 115.886 335.748C138.286 341.234 153.097 363.977 179.429 369.577C198.56 373.645 217.829 366.377 236.571 372.32C292.754 390.125 282.514 422.103 308.526 431.977H226.011H0V324.594C31.9314 314.194 46.1029 332.914 60.96 336.617Z" fill="#063EC3"/>
<path d="M123.04 386.491C123.04 401.44 108.228 413.577 108.228 413.577C108.228 413.577 93.417 401.463 93.417 386.491C93.417 371.52 108.228 359.406 108.228 359.406C108.228 359.406 123.04 371.52 123.04 386.491Z" fill="#031E5F"/>
<path d="M109.12 383.177H107.337V431.977H109.12V383.177Z" fill="#031E5F"/>
<path d="M160.137 386.491C160.137 401.44 145.326 413.577 145.326 413.577C145.326 413.577 130.514 401.463 130.514 386.491C130.514 371.52 145.326 359.406 145.326 359.406C145.326 359.406 160.137 371.52 160.137 386.491Z" fill="white"/>
<path d="M146.194 383.177H144.411V431.977H146.194V383.177Z" fill="#031E5F"/>
<path d="M197.211 386.491C197.211 401.44 182.4 413.577 182.4 413.577C182.4 413.577 167.588 401.463 167.588 386.491C167.588 371.52 182.4 359.406 182.4 359.406C182.4 359.406 197.211 371.52 197.211 386.491Z" fill="#45B3E6"/>
<path d="M183.291 383.177H181.508V431.977H183.291V383.177Z" fill="#031E5F"/>
<path d="M48.8685 386.491C48.8685 401.44 34.057 413.577 34.057 413.577C34.057 413.577 19.2456 401.463 19.2456 386.491C19.2456 371.52 34.057 359.406 34.057 359.406C34.057 359.406 48.8685 371.52 48.8685 386.491Z" fill="white"/>
<path d="M34.9257 383.177H33.1428V431.977H34.9257V383.177Z" fill="#031E5F"/>
<path d="M85.9427 386.491C85.9427 401.44 71.1313 413.577 71.1313 413.577C71.1313 413.577 56.3198 401.463 56.3198 386.491C56.3198 371.52 71.1313 359.406 71.1313 359.406C71.1313 359.406 85.9427 371.52 85.9427 386.491Z" fill="#45B3E6"/>
<path d="M72.0229 383.177H70.24V431.977H72.0229V383.177Z" fill="#031E5F"/>
<path d="M292.64 313.554L282.011 371.04C281.051 376.274 284.274 381.257 288.64 381.257H305.76C310.149 381.257 313.394 376.183 312.366 370.925L301.12 313.577C300.023 308 293.737 307.977 292.64 313.554Z" fill="#063EC3"/>
<path d="M297.897 325.737H295.908V403.131H297.897V325.737Z" fill="#031E5F"/>
<path d="M295.908 355.177V343.52L291.36 334.697L293.143 333.806L297.897 343.04V349.486L302.674 343.474L304.228 344.709L295.908 355.177Z" fill="#031E5F"/>
<path d="M335.154 313.554L324.526 371.04C323.566 376.274 326.788 381.257 331.154 381.257H348.274C352.663 381.257 355.908 376.183 354.88 370.925L343.634 313.577C342.56 308 336.251 307.977 335.154 313.554Z" fill="#063EC3"/>
<path d="M340.411 325.737H338.423V403.131H340.411V325.737Z" fill="#031E5F"/>
<path d="M338.423 355.177V343.52L333.897 334.697L335.657 333.806L340.411 343.04V349.486L345.188 343.474L346.743 344.709L338.423 355.177Z" fill="#031E5F"/>
<path d="M1359.11 60.1602H1309.44V290.789H1359.11V60.1602Z" fill="#45B3E6"/>
<path d="M1388.25 60.1602H1359.09V290.789H1388.25V60.1602Z" fill="#063EC3"/>
<path d="M1388.27 290.789H1359.09V60.1602L1388.27 290.789Z" fill="#063EC3"/>
<path d="M1320.82 69.166H1316.57V75.1317H1320.82V69.166Z" fill="white"/>
<path d="M1331.15 69.166H1326.9V75.1317H1331.15V69.166Z" fill="white"/>
<path d="M1341.51 69.166H1337.26V75.1317H1341.51V69.166Z" fill="white"/>
<path d="M1351.86 69.166H1347.61V75.1317H1351.86V69.166Z" fill="white"/>
<path d="M1320.82 86.4458H1316.57V92.4115H1320.82V86.4458Z" fill="white"/>
<path d="M1331.15 86.4458H1326.9V92.4115H1331.15V86.4458Z" fill="white"/>
<path d="M1341.51 86.4458H1337.26V92.4115H1341.51V86.4458Z" fill="white"/>
<path d="M1351.86 86.4458H1347.61V92.4115H1351.86V86.4458Z" fill="white"/>
<path d="M1320.82 103.703H1316.57V109.669H1320.82V103.703Z" fill="white"/>
<path d="M1331.15 103.703H1326.9V109.669H1331.15V103.703Z" fill="white"/>
<path d="M1341.51 103.703H1337.26V109.669H1341.51V103.703Z" fill="white"/>
<path d="M1351.86 103.703H1347.61V109.669H1351.86V103.703Z" fill="white"/>
<path d="M1320.82 120.983H1316.57V126.949H1320.82V120.983Z" fill="white"/>
<path d="M1331.15 120.983H1326.9V126.949H1331.15V120.983Z" fill="white"/>
<path d="M1341.51 120.983H1337.26V126.949H1341.51V120.983Z" fill="white"/>
<path d="M1351.86 120.983H1347.61V126.949H1351.86V120.983Z" fill="white"/>
<path d="M1320.82 138.24H1316.57V144.206H1320.82V138.24Z" fill="white"/>
<path d="M1331.15 138.24H1326.9V144.206H1331.15V138.24Z" fill="white"/>
<path d="M1341.51 138.24H1337.26V144.206H1341.51V138.24Z" fill="white"/>
<path d="M1351.86 138.24H1347.61V144.206H1351.86V138.24Z" fill="white"/>
<path d="M1320.82 155.52H1316.57V161.486H1320.82V155.52Z" fill="white"/>
<path d="M1331.15 155.52H1326.9V161.486H1331.15V155.52Z" fill="white"/>
<path d="M1341.51 155.52H1337.26V161.486H1341.51V155.52Z" fill="white"/>
<path d="M1351.86 155.52H1347.61V161.486H1351.86V155.52Z" fill="white"/>
<path d="M1320.82 172.777H1316.57V178.743H1320.82V172.777Z" fill="white"/>
<path d="M1331.15 172.777H1326.9V178.743H1331.15V172.777Z" fill="white"/>
<path d="M1341.51 172.777H1337.26V178.743H1341.51V172.777Z" fill="white"/>
<path d="M1351.86 172.777H1347.61V178.743H1351.86V172.777Z" fill="white"/>
<path d="M1320.82 190.057H1316.57V196.023H1320.82V190.057Z" fill="white"/>
<path d="M1331.15 190.057H1326.9V196.023H1331.15V190.057Z" fill="white"/>
<path d="M1341.51 190.057H1337.26V196.023H1341.51V190.057Z" fill="white"/>
<path d="M1351.86 190.057H1347.61V196.023H1351.86V190.057Z" fill="white"/>
<path d="M1320.82 207.314H1316.57V213.28H1320.82V207.314Z" fill="white"/>
<path d="M1331.15 207.314H1326.9V213.28H1331.15V207.314Z" fill="white"/>
<path d="M1341.51 207.314H1337.26V213.28H1341.51V207.314Z" fill="white"/>
<path d="M1351.86 207.314H1347.61V213.28H1351.86V207.314Z" fill="white"/>
<path d="M1320.82 224.594H1316.57V230.56H1320.82V224.594Z" fill="white"/>
<path d="M1331.15 224.594H1326.9V230.56H1331.15V224.594Z" fill="white"/>
<path d="M1341.51 224.594H1337.26V230.56H1341.51V224.594Z" fill="white"/>
<path d="M1351.86 224.594H1347.61V230.56H1351.86V224.594Z" fill="white"/>
<path d="M1320.82 241.852H1316.57V247.817H1320.82V241.852Z" fill="white"/>
<path d="M1331.15 241.852H1326.9V247.817H1331.15V241.852Z" fill="white"/>
<path d="M1341.51 241.852H1337.26V247.817H1341.51V241.852Z" fill="white"/>
<path d="M1351.86 241.852H1347.61V247.817H1351.86V241.852Z" fill="white"/>
<path d="M1320.82 259.109H1316.57V265.075H1320.82V259.109Z" fill="white"/>
<path d="M1331.15 259.109H1326.9V265.075H1331.15V259.109Z" fill="white"/>
<path d="M1341.51 259.109H1337.26V265.075H1341.51V259.109Z" fill="white"/>
<path d="M1351.86 259.109H1347.61V265.075H1351.86V259.109Z" fill="white"/>
<path d="M1320.82 276.389H1316.57V282.354H1320.82V276.389Z" fill="white"/>
<path d="M1331.15 276.389H1326.9V282.354H1331.15V276.389Z" fill="white"/>
<path d="M1341.51 276.389H1337.26V282.354H1341.51V276.389Z" fill="white"/>
<path d="M1351.86 276.389H1347.61V282.354H1351.86V276.389Z" fill="white"/>
<path d="M1274.03 122.812H1214.7V293.097H1274.03V122.812Z" fill="white"/>
<path d="M1309.42 122.812H1274.03V293.097H1309.42V122.812Z" fill="#3A95EF"/>
<path d="M1265.6 127.977H1223.13V130.834H1265.6V127.977Z" fill="#3A95EF"/>
<path d="M1265.6 136.251H1223.13V139.109H1265.6V136.251Z" fill="#3A95EF"/>
<path d="M1265.6 144.503H1223.13V147.36H1265.6V144.503Z" fill="#3A95EF"/>
<path d="M1265.6 152.777H1223.13V155.634H1265.6V152.777Z" fill="#3A95EF"/>
<path d="M1265.6 161.051H1223.13V163.909H1265.6V161.051Z" fill="#3A95EF"/>
<path d="M1265.6 169.326H1223.13V172.183H1265.6V169.326Z" fill="#3A95EF"/>
<path d="M1265.6 177.577H1223.13V180.434H1265.6V177.577Z" fill="#3A95EF"/>
<path d="M1265.6 185.852H1223.13V188.709H1265.6V185.852Z" fill="#3A95EF"/>
<path d="M1265.6 194.126H1223.13V196.983H1265.6V194.126Z" fill="#3A95EF"/>
<path d="M1265.6 202.377H1223.13V205.234H1265.6V202.377Z" fill="white"/>
<path d="M1265.6 210.651H1223.13V213.509H1265.6V210.651Z" fill="white"/>
<path d="M1265.6 218.926H1223.13V221.783H1265.6V218.926Z" fill="white"/>
<path d="M1265.6 227.2H1223.13V230.057H1265.6V227.2Z" fill="white"/>
<path d="M1265.6 235.451H1223.13V238.308H1265.6V235.451Z" fill="white"/>
<path d="M1265.6 243.726H1223.13V246.583H1265.6V243.726Z" fill="white"/>
<path d="M1265.6 252H1223.13V254.857H1265.6V252Z" fill="white"/>
<path d="M1265.6 260.251H1223.13V263.109H1265.6V260.251Z" fill="white"/>
<path d="M1265.6 268.525H1223.13V271.383H1265.6V268.525Z" fill="white"/>
<path d="M1265.6 276.8H1223.13V279.657H1265.6V276.8Z" fill="white"/>
<path d="M1265.6 285.074H1223.13V287.931H1265.6V285.074Z" fill="white"/>
<path d="M1300.43 127.977H1283.02V130.834H1300.43V127.977Z" fill="#45B3E6"/>
<path d="M1300.43 136.251H1283.02V139.109H1300.43V136.251Z" fill="#45B3E6"/>
<path d="M1300.43 144.503H1283.02V147.36H1300.43V144.503Z" fill="#45B3E6"/>
<path d="M1300.43 152.777H1283.02V155.634H1300.43V152.777Z" fill="#45B3E6"/>
<path d="M1300.43 161.051H1283.02V163.909H1300.43V161.051Z" fill="#45B3E6"/>
<path d="M1300.43 169.326H1283.02V172.183H1300.43V169.326Z" fill="#45B3E6"/>
<path d="M1300.43 177.577H1283.02V180.434H1300.43V177.577Z" fill="#45B3E6"/>
<path d="M1300.43 185.852H1283.02V188.709H1300.43V185.852Z" fill="#45B3E6"/>
<path d="M1300.43 194.126H1283.02V196.983H1300.43V194.126Z" fill="#45B3E6"/>
<path d="M1300.43 202.377H1283.02V205.234H1300.43V202.377Z" fill="#45B3E6"/>
<path d="M1300.43 210.651H1283.02V213.509H1300.43V210.651Z" fill="#45B3E6"/>
<path d="M1300.43 218.926H1283.02V221.783H1300.43V218.926Z" fill="#45B3E6"/>
<path d="M1300.43 227.2H1283.02V230.057H1300.43V227.2Z" fill="#45B3E6"/>
<path d="M1300.43 235.451H1283.02V238.308H1300.43V235.451Z" fill="#45B3E6"/>
<path d="M1300.43 243.726H1283.02V246.583H1300.43V243.726Z" fill="#45B3E6"/>
<path d="M1300.43 252H1283.02V254.857H1300.43V252Z" fill="#45B3E6"/>
<path d="M1300.43 260.251H1283.02V263.109H1300.43V260.251Z" fill="#45B3E6"/>
<path d="M1300.43 268.525H1283.02V271.383H1300.43V268.525Z" fill="#45B3E6"/>
<path d="M1300.43 276.8H1283.02V279.657H1300.43V276.8Z" fill="#45B3E6"/>
<path d="M1300.43 285.074H1283.02V287.931H1300.43V285.074Z" fill="#45B3E6"/>
<path d="M1163.04 244.32C1163.04 244.32 1158.1 219.771 1181.83 216.183C1196.09 214.034 1191.91 204.526 1205.05 199.337C1215.89 195.04 1224.09 202.423 1232.3 198.743C1245.26 192.937 1243.09 183.748 1263.27 181.394C1272.87 180.274 1276.09 172.046 1286.77 172.068C1302.83 172.114 1309.46 185.463 1309.46 185.463V244.32H1163.04Z" fill="#063EC3"/>
<path d="M705.874 297.143C762.08 309.166 746.949 319.155 797.829 324.869C845.051 330.172 865.92 295.612 922.354 307.2C986.766 320.412 989.074 248.937 1049.37 257.326C1104.82 265.029 1112.87 231.2 1163.04 244.937C1184.59 250.835 1229.37 323.269 1246.65 333.875V361.052L609.394 375.498V297.12C637.371 293.395 678.217 291.223 705.874 297.143Z" fill="#3A95EF"/>
<path d="M544.868 316.526C516.686 337.029 526.08 340.846 499.543 352.023C474.903 362.4 456.686 335.337 428.023 346.812C390.331 361.897 397.691 381.44 361.6 390.834C327.451 399.749 328.274 385.394 278.217 393.189C264 395.406 202.651 423.772 174.514 432H226.514H609.143V298.08C609.143 298.057 572.891 296.114 544.868 316.526Z" fill="#3A95EF"/>
<path d="M500.937 328.937C500.206 327.748 500.091 326.149 500.617 324.777C501.394 322.697 501.829 320.389 501.829 317.966C501.829 313.029 500.046 308.617 497.212 305.623C496.023 304.366 495.634 302.286 496.389 300.617C497.074 299.086 497.486 297.326 497.509 295.451C497.554 289.554 493.646 284.526 488.869 284.366C483.817 284.183 479.703 289.166 479.703 295.337C479.703 297.257 480.114 299.063 480.823 300.64C481.577 302.309 481.189 304.411 480 305.646C477.189 308.64 475.383 313.051 475.383 317.989C475.383 320.434 475.817 322.743 476.594 324.8C477.12 326.171 476.983 327.794 476.229 328.983C474.034 332.503 472.823 337.006 473.074 341.851C473.554 351.474 480.023 359.314 487.84 359.771C496.777 360.297 504.16 351.52 504.16 340.64C504.16 336.206 502.949 332.16 500.937 328.937Z" fill="#063EC3"/>
<path d="M432.366 335.772C432.48 334.88 432.503 333.943 432.412 332.983C432 327.657 428.549 323.315 424.206 322.743C418.606 321.989 413.852 327.36 413.852 334.126C413.852 334.56 413.874 334.995 413.92 335.429C414.309 339.589 413.92 343.84 412.549 347.68C411.817 349.715 411.474 351.977 411.589 354.377C411.954 361.44 416.594 367.177 422.332 367.657C429.097 368.229 434.743 361.646 434.743 353.44C434.743 351.406 434.4 349.463 433.783 347.726C432.457 343.932 431.886 339.817 432.366 335.772Z" fill="#063EC3"/>
<path d="M423.863 337.783H421.875V385.143H423.863V337.783Z" fill="#031E5F"/>
<path d="M458.743 320.411C458.88 319.223 458.903 317.989 458.812 316.731C458.263 309.714 453.714 304.023 448.023 303.246C440.64 302.24 434.4 309.326 434.4 318.217C434.4 318.789 434.423 319.36 434.469 319.931C434.972 325.417 434.492 331.017 432.663 336.068C431.703 338.743 431.246 341.714 431.406 344.868C431.886 354.171 437.989 361.714 445.532 362.354C454.446 363.108 461.852 354.446 461.852 343.634C461.852 340.96 461.394 338.423 460.572 336.114C458.857 331.154 458.103 325.737 458.743 320.411Z" fill="white"/>
<path d="M447.108 323.451H445.12V385.12H447.108V323.451Z" fill="#031E5F"/>
<path d="M488.252 320.16H486.263V386.24H488.252V320.16Z" fill="#031E5F"/>
<path d="M538.674 303.772C538.674 325.097 526.217 342.377 526.217 342.377C526.217 342.377 513.76 325.097 513.76 303.772C513.76 282.446 526.217 265.166 526.217 265.166C526.217 265.166 538.674 282.446 538.674 303.772Z" fill="#063EC3"/>
<path d="M527.223 299.063H525.234V388.777H527.223V299.063Z" fill="#031E5F"/>
<path d="M569.852 303.772C569.852 325.097 557.394 342.377 557.394 342.377C557.394 342.377 544.937 325.097 544.937 303.772C544.937 282.446 557.394 265.166 557.394 265.166C557.394 265.166 569.852 282.446 569.852 303.772Z" fill="white"/>
<path d="M558.4 299.063H556.412V388.777H558.4V299.063Z" fill="#031E5F"/>
<path d="M601.052 303.772C601.052 325.097 588.594 342.377 588.594 342.377C588.594 342.377 576.137 325.097 576.137 303.772C576.137 282.446 588.594 265.166 588.594 265.166C588.594 265.166 601.052 282.446 601.052 303.772Z" fill="#45B3E6"/>
<path d="M589.577 299.063H587.589V388.777H589.577V299.063Z" fill="#031E5F"/>
<path d="M774.24 296.869C774.24 317.509 762.194 334.24 762.194 334.24C762.194 334.24 750.148 317.509 750.148 296.869C750.148 276.229 762.194 259.497 762.194 259.497C762.194 259.497 774.24 276.229 774.24 296.869Z" fill="white"/>
<path d="M763.2 290.286H761.211V352.068H763.2V290.286Z" fill="#031E5F"/>
<path d="M811.863 301.28C811.863 321.92 799.817 338.652 799.817 338.652C799.817 338.652 787.771 321.92 787.771 301.28C787.771 280.64 799.817 263.909 799.817 263.909C799.817 263.909 811.863 280.64 811.863 301.28Z" fill="#031E5F"/>
<path d="M800.8 300.458H798.812V350.035H800.8V300.458Z" fill="#031E5F"/>
<path d="M841.555 298.423C841.555 325.531 824.32 347.497 824.32 347.497C824.32 347.497 807.086 325.531 807.086 298.423C807.086 271.314 824.32 249.349 824.32 249.349C824.32 249.349 841.555 271.314 841.555 298.423Z" fill="#45B3E6"/>
<path d="M825.303 289.783H823.314V354.903H825.303V289.783Z" fill="#031E5F"/>
<path d="M704.64 311.566C704.64 332.206 692.594 348.937 692.594 348.937C692.594 348.937 680.549 332.206 680.549 311.566C680.549 290.926 692.594 274.194 692.594 274.194C692.594 274.194 704.64 290.949 704.64 311.566Z" fill="#031E5F"/>
<path d="M693.577 310.743H691.589V374.377H693.577V310.743Z" fill="#063EC3"/>
<path d="M733.897 297.737C733.897 324.846 716.663 346.812 716.663 346.812C716.663 346.812 699.429 324.846 699.429 297.737C699.429 270.629 716.663 248.663 716.663 248.663C716.663 248.663 733.897 270.629 733.897 297.737Z" fill="#063EC3"/>
<path d="M717.646 289.097H715.657V366.057H717.646V289.097Z" fill="#031E5F"/>
<path d="M998.354 362.857C973.326 369.097 973.852 356.046 943.795 348.526C911.589 340.48 893.715 360.16 867.772 359.268C824.115 357.76 811.429 345.851 772.96 342.286C746.217 339.794 716.366 347.2 693.372 359.451C679.703 366.743 663.223 367.954 648.32 363.154C636.252 359.268 625.532 357.44 618.126 357.44C578.057 357.44 569.44 365.44 546.08 375.223C528.892 382.423 521.417 366.674 494.126 373.029C469.783 378.697 473.532 394.469 452.069 396.48C391.017 402.217 390.697 432.64 379.749 432H421.486H998.354V362.857Z" fill="#45B3E6"/>
<path d="M913.348 341.074C913.348 360.137 899.634 375.589 899.634 375.589C899.634 375.589 885.92 360.137 885.92 341.074C885.92 322.011 899.634 306.56 899.634 306.56C899.634 306.56 913.348 322.011 913.348 341.074Z" fill="#063EC3"/>
<path d="M900.732 336.869H898.537V394.811H900.732V336.869Z" fill="#031E5F"/>
<path d="M947.68 341.074C947.68 360.137 933.966 375.589 933.966 375.589C933.966 375.589 920.251 360.137 920.251 341.074C920.251 322.011 933.966 306.56 933.966 306.56C933.966 306.56 947.68 322.011 947.68 341.074Z" fill="white"/>
<path d="M935.063 336.869H932.869V394.811H935.063V336.869Z" fill="#031E5F"/>
<path d="M982.034 341.074C982.034 360.137 968.32 375.589 968.32 375.589C968.32 375.589 954.606 360.137 954.606 341.074C954.606 322.011 968.32 306.56 968.32 306.56C968.32 306.56 982.034 322.011 982.034 341.074Z" fill="#063EC3"/>
<path d="M969.417 336.869H967.223V394.811H969.417V336.869Z" fill="#031E5F"/>
<path d="M1538.35 431.977H1477.1V241.714L1538.35 228.091V431.977Z" fill="#45B3E6"/>
<path d="M1599.89 228.091H1538.63V431.977H1599.89V228.091Z" fill="#063EC3"/>
<path d="M1388.27 384.846L1273.6 378.309L1279.82 244.32H1388.27V384.846Z" fill="#063EC3"/>
<path d="M1318.63 274.674C1318.63 286.491 1306.22 296.069 1306.22 296.069C1306.22 296.069 1293.81 286.491 1293.81 274.674C1293.81 269.486 1296.21 264.709 1298.9 261.006C1302.51 256.046 1309.94 256.046 1313.55 261.006C1316.23 264.709 1318.63 269.486 1318.63 274.674Z" fill="#063EC3"/>
<path d="M1307.11 272.068H1305.33V325.006H1307.11V272.068Z" fill="#031E5F"/>
<path d="M1349.71 274.674C1349.71 286.491 1337.3 296.069 1337.3 296.069C1337.3 296.069 1324.89 286.491 1324.89 274.674C1324.89 269.486 1327.29 264.709 1329.99 261.006C1333.6 256.046 1341.03 256.046 1344.64 261.006C1347.31 264.709 1349.71 269.486 1349.71 274.674Z" fill="white"/>
<path d="M1338.19 272.068H1336.41V307.977H1338.19V272.068Z" fill="#031E5F"/>
<path d="M1380.8 274.674C1380.8 286.491 1368.39 296.069 1368.39 296.069C1368.39 296.069 1355.98 286.491 1355.98 274.674C1355.98 269.486 1358.38 264.709 1361.07 261.006C1364.69 256.046 1372.11 256.046 1375.73 261.006C1378.4 264.709 1380.8 269.486 1380.8 274.674Z" fill="#45B3E6"/>
<path d="M1369.28 272.068H1367.5V307.977H1369.28V272.068Z" fill="#031E5F"/>
<path d="M1401.71 329.395C1401.71 324.275 1395.91 320.137 1388.73 320.137C1388.27 320.137 1387.82 320.16 1387.36 320.183C1387.41 319.817 1387.43 319.452 1387.43 319.086C1387.43 311.863 1379.22 306.012 1369.1 306.012C1366.47 306.012 1364 306.4 1361.74 307.109C1361.21 302.355 1355.63 298.606 1348.8 298.606C1341.97 298.606 1336.39 302.377 1335.86 307.155C1333.9 306.72 1331.82 306.469 1329.65 306.469C1318.17 306.469 1308.87 313.097 1308.87 321.28C1308.87 321.555 1308.91 321.806 1308.91 322.057C1307.15 321.417 1305.14 321.052 1303.02 321.052C1295.84 321.052 1290.03 325.189 1290.03 330.309C1290.03 335.429 1295.84 339.566 1303.02 339.566C1303.79 339.566 1304.57 339.52 1305.3 339.429C1311.2 342.88 1327.84 345.349 1347.47 345.349C1368.82 345.349 1386.49 381.623 1390.77 377.692C1396.91 376.96 1401.71 333.966 1401.71 329.395Z" fill="#063EC3"/>
<path d="M1315.7 334.858L1300.07 353.646L1180.98 355.04L1157.07 305.783H1280.23L1315.7 334.858Z" fill="#3A95EF"/>
<path d="M1432.69 22.8115H1388.27V244.32H1432.69V22.8115Z" fill="#45B3E6"/>
<path d="M1477.1 244.32H1432.69V22.8115L1477.1 51.6344V244.32Z" fill="#45B3E6"/>
<path d="M1398.45 32.1372H1394.65V239.977H1398.45V32.1372Z" fill="white"/>
<path d="M1407.7 32.1372H1403.91V239.977H1407.7V32.1372Z" fill="white"/>
<path d="M1416.96 32.1372H1413.17V239.977H1416.96V32.1372Z" fill="white"/>
<path d="M1426.22 32.1372H1422.42V239.977H1426.22V32.1372Z" fill="white"/>
<path d="M1439.13 239.977H1442.95V34.5601L1439.22 32.1372H1439.13V239.977Z" fill="white"/>
<path d="M1452.21 239.977V40.5716L1448.39 38.103V239.977H1452.21Z" fill="white"/>
<path d="M1461.46 239.977V46.5828L1457.65 44.1143V239.977H1461.46Z" fill="white"/>
<path d="M1470.7 239.977V52.594L1466.9 50.1255V239.977H1470.7Z" fill="white"/>
<path d="M1538.35 244.32H1477.1V72.8685L1538.35 59.2456V244.32Z" fill="#45B3E6"/>
<path d="M1599.89 59.2456H1538.63V244.32H1599.89V59.2456Z" fill="#063EC3"/>
<path d="M1538.35 72.8687H1477.1V75.2229H1538.35V72.8687Z" fill="white"/>
<path d="M1538.35 87.0859H1477.1V89.4402H1538.35V87.0859Z" fill="white"/>
<path d="M1538.35 101.303H1477.1V103.657H1538.35V101.303Z" fill="white"/>
<path d="M1538.35 115.52H1477.1V117.874H1538.35V115.52Z" fill="white"/>
<path d="M1538.35 129.714H1477.1V132.069H1538.35V129.714Z" fill="white"/>
<path d="M1538.35 143.932H1477.1V146.286H1538.35V143.932Z" fill="white"/>
<path d="M1538.35 158.149H1477.1V160.503H1538.35V158.149Z" fill="white"/>
<path d="M1538.35 172.366H1477.1V174.72H1538.35V172.366Z" fill="white"/>
<path d="M1538.35 186.583H1477.1V188.937H1538.35V186.583Z" fill="white"/>
<path d="M1538.35 200.8H1477.1V203.155H1538.35V200.8Z" fill="white"/>
<path d="M1538.35 215.018H1477.1V217.372H1538.35V215.018Z" fill="white"/>
<path d="M1538.35 229.234H1477.1V231.589H1538.35V229.234Z" fill="white"/>
<path d="M1585.44 256.64C1584.66 255.634 1584.57 254.286 1585.1 253.143C1585.9 251.383 1586.35 249.44 1586.35 247.383C1586.35 243.223 1584.5 239.497 1581.55 236.96C1580.32 235.908 1579.93 234.148 1580.71 232.731C1581.42 231.428 1581.85 229.943 1581.85 228.366C1581.9 223.383 1577.83 219.154 1572.87 218.994C1567.63 218.834 1563.34 223.04 1563.34 228.251C1563.34 229.874 1563.75 231.406 1564.5 232.708C1565.28 234.126 1564.87 235.886 1563.66 236.937C1560.73 239.451 1558.86 243.177 1558.86 247.337C1558.86 249.394 1559.31 251.337 1560.11 253.097C1560.64 254.263 1560.53 255.611 1559.75 256.64C1557.46 259.611 1556.21 263.406 1556.46 267.497C1556.96 275.611 1563.68 282.24 1571.82 282.606C1581.12 283.04 1588.78 275.634 1588.78 266.446C1588.78 262.789 1587.54 259.36 1585.44 256.64Z" fill="#45B3E6"/>
<path d="M1514.17 262.4C1514.29 261.646 1514.31 260.846 1514.22 260.046C1513.78 255.543 1510.19 251.886 1505.69 251.383C1499.86 250.743 1494.93 255.292 1494.93 260.983C1494.93 261.349 1494.95 261.714 1494.99 262.08C1495.38 265.6 1494.99 269.189 1493.58 272.412C1492.82 274.126 1492.46 276.046 1492.59 278.057C1492.98 284.023 1497.81 288.846 1503.75 289.257C1510.79 289.737 1516.64 284.183 1516.64 277.257C1516.64 275.543 1516.27 273.92 1515.63 272.434C1514.26 269.303 1513.67 265.806 1514.17 262.4Z" fill="#063EC3"/>
<path d="M1504.87 264.069H1503.09V332.046H1504.87V264.069Z" fill="#031E5F"/>
<path d="M1541.58 249.44C1541.71 248.434 1541.76 247.406 1541.65 246.331C1541.07 240.411 1536.34 235.588 1530.42 234.948C1522.74 234.103 1516.25 240.091 1516.25 247.588C1516.25 248.068 1516.27 248.549 1516.34 249.029C1516.87 253.646 1516.37 258.377 1514.47 262.651C1513.49 264.891 1512.98 267.429 1513.17 270.08C1513.67 277.92 1520 284.297 1527.86 284.846C1537.12 285.486 1544.82 278.171 1544.82 269.051C1544.82 266.789 1544.34 264.64 1543.5 262.697C1541.69 258.514 1540.91 253.92 1541.58 249.44Z" fill="white"/>
<path d="M1529.03 251.543H1527.25V303.406H1529.03V251.543Z" fill="#031E5F"/>
<path d="M1572.85 249.76H1571.06V304.32H1572.85V249.76Z" fill="#031E5F"/>
<path d="M1208.57 244.32L1185.83 222.537H1257.49L1280.23 244.32H1208.57Z" fill="#3A95EF"/>
<path d="M1185.94 222.514L1163.2 244.297V305.806H1208.69V244.297L1185.94 222.514Z" fill="#45B3E6"/>
<path d="M1280.23 244.32H1208.57V305.783H1280.23V244.32Z" fill="#45B3E6"/>
<path d="M1477.1 249.966L1432.69 213.897V173.188L1477.1 209.234V249.966Z" fill="#063EC3"/>
<path d="M1388.27 249.966L1432.69 213.897V173.188L1388.27 209.234V249.966Z" fill="#45B3E6"/>
<path d="M1432.8 213.897L1388.34 249.943V431.977H1477.26V249.943L1432.8 213.897Z" fill="white"/>
<path d="M1405.67 272.754H1400.75V277.782H1405.67V272.754Z" fill="#3A95EF"/>
<path d="M1405.67 287.817H1400.75V292.845H1405.67V287.817Z" fill="#3A95EF"/>
<path d="M1405.67 302.88H1400.75V307.908H1405.67V302.88Z" fill="#3A95EF"/>
<path d="M1420.41 257.691H1415.5V262.72H1420.41V257.691Z" fill="#3A95EF"/>
<path d="M1420.41 272.754H1415.5V277.782H1420.41V272.754Z" fill="#3A95EF"/>
<path d="M1420.41 287.817H1415.5V292.845H1420.41V287.817Z" fill="#3A95EF"/>
<path d="M1420.41 302.88H1415.5V307.908H1420.41V302.88Z" fill="#3A95EF"/>
<path d="M1435.13 242.628H1430.22V247.657H1435.13V242.628Z" fill="#3A95EF"/>
<path d="M1435.13 257.691H1430.22V262.72H1435.13V257.691Z" fill="#3A95EF"/>
<path d="M1435.13 272.754H1430.22V277.782H1435.13V272.754Z" fill="#3A95EF"/>
<path d="M1435.13 287.817H1430.22V292.845H1435.13V287.817Z" fill="#3A95EF"/>
<path d="M1435.13 302.88H1430.22V307.908H1435.13V302.88Z" fill="#3A95EF"/>
<path d="M1449.87 257.691H1444.96V262.72H1449.87V257.691Z" fill="#3A95EF"/>
<path d="M1449.87 272.754H1444.96V277.782H1449.87V272.754Z" fill="#3A95EF"/>
<path d="M1449.87 287.817H1444.96V292.845H1449.87V287.817Z" fill="#3A95EF"/>
<path d="M1449.87 302.88H1444.96V307.908H1449.87V302.88Z" fill="#3A95EF"/>
<path d="M1464.62 272.754H1459.7V277.782H1464.62V272.754Z" fill="#3A95EF"/>
<path d="M1464.62 287.817H1459.7V292.845H1464.62V287.817Z" fill="#3A95EF"/>
<path d="M1464.62 302.88H1459.7V307.908H1464.62V302.88Z" fill="#3A95EF"/>
<path d="M1405.67 317.943H1400.75V322.971H1405.67V317.943Z" fill="#3A95EF"/>
<path d="M1420.41 317.943H1415.5V322.971H1420.41V317.943Z" fill="#3A95EF"/>
<path d="M1435.13 317.943H1430.22V322.971H1435.13V317.943Z" fill="#3A95EF"/>
<path d="M1449.87 317.943H1444.96V322.971H1449.87V317.943Z" fill="#3A95EF"/>
<path d="M1464.62 317.943H1459.7V322.971H1464.62V317.943Z" fill="#3A95EF"/>
<path d="M1289.19 304.48C1289.19 320.48 1277.67 333.463 1277.67 333.463C1277.67 333.463 1266.15 320.48 1266.15 304.48C1266.15 288.48 1277.67 275.497 1277.67 275.497C1277.67 275.497 1289.19 288.48 1289.19 304.48Z" fill="#45B3E6"/>
<path d="M1278.56 299.383H1276.78V337.829H1278.56V299.383Z" fill="#031E5F"/>
<path d="M1277.67 312.069L1272.78 307.063L1274.06 305.829L1277.67 309.509L1281.28 305.829L1282.56 307.063L1277.67 312.069Z" fill="#031E5F"/>
<path d="M1253.1 305.509C1253.1 319.657 1242.93 331.109 1242.93 331.109C1242.93 331.109 1232.75 319.657 1232.75 305.509C1232.75 291.36 1242.93 279.909 1242.93 279.909C1242.93 279.909 1253.1 291.383 1253.1 305.509Z" fill="#063EC3"/>
<path d="M1271.13 293.897C1271.13 309.897 1259.61 322.88 1259.61 322.88C1259.61 322.88 1248.09 309.897 1248.09 293.897C1248.09 277.897 1259.61 264.915 1259.61 264.915C1259.61 264.915 1271.13 277.874 1271.13 293.897Z" fill="#063EC3"/>
<path d="M1260.5 290.354H1258.72V339.017H1260.5V290.354Z" fill="#031E5F"/>
<path d="M1243.82 300.96H1242.03V338.24H1243.82V300.96Z" fill="#063EC3"/>
<path d="M1298.22 352.732H1207.43V431.978H1298.22V352.732Z" fill="#45B3E6"/>
<path d="M1207.43 352.732L1181.46 324.229C1181.46 324.229 1211.2 312.137 1227.91 323.314C1250.88 338.697 1259.25 324.549 1284.46 327.452C1308.37 330.217 1332.53 352.732 1332.53 352.732H1207.43Z" fill="#45B3E6"/>
<path d="M1207.43 341.989C1220.98 340.48 1224.37 358.514 1231.89 363.68C1239.41 368.846 1240.75 358.583 1254.88 358.514C1270.93 358.446 1267.31 351.977 1276 347.726C1284.27 343.68 1294.77 348.206 1298.22 352.732C1309.37 367.406 1347.18 404.252 1347.18 404.252L1317.62 400.732L1207.43 395.063V341.989Z" fill="#063EC3"/>
<path d="M1224.39 340.663L1213.9 377.28L1243.61 389.211L1231.89 340.663C1230.93 336.686 1225.37 336.663 1224.39 340.663Z" fill="#3A95EF"/>
<path d="M1229.05 349.417H1227.27V378.034H1229.05V349.417Z" fill="#063EC3"/>
<path d="M1227.27 370.674V362.262L1223.29 356L1224.8 355.04L1229.05 361.737V366.285L1233.3 361.942L1234.58 363.2L1227.27 370.674Z" fill="#063EC3"/>
<path d="M1242.42 339.017L1231.38 394.034L1261.65 397.326L1249.92 339.04C1248.94 335.04 1243.38 335.04 1242.42 339.017Z" fill="#3A95EF"/>
<path d="M1247.06 347.771H1245.28V388.891H1247.06V347.771Z" fill="#063EC3"/>
<path d="M1245.28 369.028V360.617L1241.33 354.354L1242.83 353.394L1247.09 360.091V364.64L1251.34 360.297L1252.62 361.554L1245.28 369.028Z" fill="#063EC3"/>
<path d="M1207.43 373.828C1216.85 371.36 1228.16 378.263 1233.53 384.16C1238.9 390.057 1242.35 384.48 1249.07 386.788C1257.92 389.806 1264.07 399.68 1274.45 398.034C1284.82 396.388 1292.07 401.211 1292.07 401.211L1298.19 432H1207.41V373.828H1207.43Z" fill="#45B3E6"/>
<path d="M1207.43 403.977C1219.47 392.411 1225.17 404.983 1235.61 402.354C1244.27 400.183 1246.22 396.068 1259.82 393.143C1268.07 391.36 1271.52 394.034 1277.28 388.114C1282.9 382.331 1281.69 374.491 1298.19 372.023C1316.3 369.326 1320.43 380.868 1320.43 380.868L1315.68 394.834L1302.63 431.977H1207.41V403.977H1207.43Z" fill="#031E5F"/>
<path d="M1333.19 352.732L1315.7 334.857H1370.79L1388.27 352.732H1333.19Z" fill="#3A95EF"/>
<path d="M1315.77 334.834L1298.29 352.709V431.977H1333.26V352.709L1315.77 334.834Z" fill="white"/>
<path d="M1388.27 352.732H1333.19V431.978H1388.27V352.732Z" fill="#45B3E6"/>
<path d="M1383.75 352.732L1366.26 334.857H1364.53L1382.01 352.732H1383.75Z" fill="#45B3E6"/>
<path d="M1376.37 352.732L1358.88 334.857H1357.14L1374.63 352.732H1376.37Z" fill="#45B3E6"/>
<path d="M1368.98 352.732L1351.5 334.857H1349.76L1367.25 352.732H1368.98Z" fill="#45B3E6"/>
<path d="M1361.6 352.732L1344.11 334.857H1342.35L1359.86 352.732H1361.6Z" fill="#45B3E6"/>
<path d="M1354.22 352.732L1336.73 334.857H1334.97L1352.48 352.732H1354.22Z" fill="#45B3E6"/>
<path d="M1346.83 352.732L1329.35 334.857H1327.59L1345.1 352.732H1346.83Z" fill="#45B3E6"/>
<path d="M1339.45 352.732L1321.97 334.857H1320.21L1337.71 352.732H1339.45Z" fill="#45B3E6"/>
<path d="M1043.38 273.6L998.766 319.063H1118.17L1162.81 273.6H1043.38Z" fill="#063EC3"/>
<path d="M1162.86 273.577L1118.17 319.063V431.977H1207.54V319.063L1162.86 273.577Z" fill="white"/>
<path d="M1080.55 319.063L1058.47 296.571H1102.63L1080.55 319.063Z" fill="#031E5F"/>
<path d="M1080.62 319.063L1058.56 296.571L1036.48 319.063H998.857V431.977H1118.17V319.063H1080.62Z" fill="#45B3E6"/>
<path d="M1139.59 348.434H1135.2V353.531H1139.59V348.434Z" fill="#45B3E6"/>
<path d="M1139.59 363.703H1135.2V368.8H1139.59V363.703Z" fill="#45B3E6"/>
<path d="M1139.59 378.971H1135.2V384.068H1139.59V378.971Z" fill="#45B3E6"/>
<path d="M1139.59 394.24H1135.2V399.337H1139.59V394.24Z" fill="#45B3E6"/>
<path d="M1152.73 348.434H1148.34V353.531H1152.73V348.434Z" fill="#45B3E6"/>
<path d="M1152.73 363.703H1148.34V368.8H1152.73V363.703Z" fill="#45B3E6"/>
<path d="M1152.73 378.971H1148.34V384.068H1152.73V378.971Z" fill="#45B3E6"/>
<path d="M1152.73 394.24H1148.34V399.337H1152.73V394.24Z" fill="#45B3E6"/>
<path d="M1165.87 348.434H1161.49V353.531H1165.87V348.434Z" fill="#45B3E6"/>
<path d="M1165.87 363.703H1161.49V368.8H1165.87V363.703Z" fill="#45B3E6"/>
<path d="M1165.87 378.971H1161.49V384.068H1165.87V378.971Z" fill="#45B3E6"/>
<path d="M1165.87 394.24H1161.49V399.337H1165.87V394.24Z" fill="#45B3E6"/>
<path d="M1179.04 348.434H1174.65V353.531H1179.04V348.434Z" fill="#45B3E6"/>
<path d="M1179.04 363.703H1174.65V368.8H1179.04V363.703Z" fill="#45B3E6"/>
<path d="M1179.04 378.971H1174.65V384.068H1179.04V378.971Z" fill="#45B3E6"/>
<path d="M1179.04 394.24H1174.65V399.337H1179.04V394.24Z" fill="#45B3E6"/>
<path d="M1192.18 348.434H1187.79V353.531H1192.18V348.434Z" fill="#45B3E6"/>
<path d="M1192.18 363.703H1187.79V368.8H1192.18V363.703Z" fill="#45B3E6"/>
<path d="M1192.18 378.971H1187.79V384.068H1192.18V378.971Z" fill="#45B3E6"/>
<path d="M1192.18 394.24H1187.79V399.337H1192.18V394.24Z" fill="#45B3E6"/>
<path d="M1015.73 348.251H1010.13V366.766H1015.73V348.251Z" fill="#3A95EF"/>
<path d="M1038.58 348.251H1032.98V366.766H1038.58V348.251Z" fill="#3A95EF"/>
<path d="M1061.44 348.251H1055.84V366.766H1061.44V348.251Z" fill="#3A95EF"/>
<path d="M1084.32 348.251H1078.72V366.766H1084.32V348.251Z" fill="#3A95EF"/>
<path d="M1107.18 348.251H1101.58V366.766H1107.18V348.251Z" fill="#3A95EF"/>
<path d="M1015.73 380.982H1010.13V399.497H1015.73V380.982Z" fill="#3A95EF"/>
<path d="M1038.58 380.982H1032.98V399.497H1038.58V380.982Z" fill="#3A95EF"/>
<path d="M1061.44 380.982H1055.84V399.497H1061.44V380.982Z" fill="#3A95EF"/>
<path d="M1084.32 380.982H1078.72V399.497H1084.32V380.982Z" fill="#3A95EF"/>
<path d="M1107.18 380.982H1101.58V399.497H1107.18V380.982Z" fill="#3A95EF"/>
<path d="M1581.67 302.56C1578.24 302.56 1575.04 303.269 1572.3 304.458C1571.59 297.555 1563.68 292.092 1554.03 292.092C1546.29 292.092 1539.68 295.589 1536.98 300.549C1533.74 298.446 1529.46 297.143 1524.78 297.143C1515.29 297.143 1507.47 302.4 1506.54 309.143C1503.47 307.452 1499.68 306.446 1495.54 306.446C1485.42 306.446 1477.21 312.435 1477.21 319.818C1477.21 319.909 1477.23 320 1477.23 320.115H1477.21V432H1600V315.955C1600 308.549 1591.79 302.56 1581.67 302.56Z" fill="#063EC3"/>
<path d="M1559.82 349.737L1538.63 309.234H1578.72L1599.91 349.737H1559.82Z" fill="#031E5F"/>
<path d="M1599.91 349.737H1559.82V431.977H1599.91V349.737Z" fill="#45B3E6"/>
<path d="M1538.74 309.211V349.714V431.977H1560V349.714L1538.74 309.211Z" fill="white"/>
<path d="M1584.34 365.6H1575.73V375.794H1584.34V365.6Z" fill="#3A95EF"/>
<path d="M1584.34 388.937H1575.73V399.131H1584.34V388.937Z" fill="#3A95EF"/>
<path d="M1506.4 346.24C1506.4 360.709 1496 372.434 1496 372.434C1496 372.434 1485.6 360.709 1485.6 346.24C1485.6 345.829 1485.6 345.44 1485.62 345.051C1486.15 331.703 1505.87 331.703 1506.4 345.051C1506.4 345.44 1506.4 345.829 1506.4 346.24Z" fill="#063EC3"/>
<path d="M1496.89 353.714H1495.11V412.914H1496.89V353.714Z" fill="#031E5F"/>
<path d="M1532.46 346.24C1532.46 360.709 1522.06 372.434 1522.06 372.434C1522.06 372.434 1511.66 360.709 1511.66 346.24C1511.66 345.829 1511.66 345.44 1511.68 345.051C1512.21 331.703 1531.93 331.703 1532.46 345.051C1532.46 345.44 1532.46 345.829 1532.46 346.24Z" fill="#45B3E6"/>
<path d="M1522.95 353.714H1521.17V412.914H1522.95V353.714Z" fill="#031E5F"/>
<path d="M1538.26 417.966C1538.26 409.371 1531.45 397.6 1523.04 397.6C1518.56 397.6 1514.56 399.589 1511.77 402.743C1511.52 394.377 1504.82 387.703 1496.57 387.703C1494.29 387.703 1492.11 388.229 1490.15 389.166C1490.15 389.051 1490.17 388.937 1490.17 388.823C1490.17 380.229 1483.36 373.28 1474.95 373.28C1471.52 373.28 1468.37 374.446 1465.83 376.411C1465.05 368.571 1458.56 362.469 1450.7 362.469C1446.81 362.469 1443.27 363.977 1440.57 366.423C1438.33 360.663 1432.85 356.594 1426.42 356.594C1418.4 356.594 1411.86 362.926 1411.27 370.971C1408.98 369.577 1406.33 368.777 1403.5 368.777C1395.09 368.777 1388.27 375.749 1388.27 384.32V431.977H1538.65L1538.26 417.966Z" fill="#3A95EF"/>
<path d="M1428.62 383.543C1427.84 382.537 1427.75 381.188 1428.27 380.046C1429.07 378.286 1429.53 376.343 1429.53 374.286C1429.53 370.126 1427.68 366.4 1424.73 363.863C1423.5 362.811 1423.11 361.051 1423.89 359.634C1424.59 358.331 1425.03 356.846 1425.03 355.268C1425.07 350.286 1421.01 346.057 1416.05 345.897C1410.81 345.737 1406.51 349.943 1406.51 355.154C1406.51 356.777 1406.93 358.308 1407.68 359.611C1408.46 361.028 1408.05 362.788 1406.83 363.84C1403.91 366.354 1402.03 370.08 1402.03 374.24C1402.03 376.297 1402.49 378.24 1403.29 380C1403.82 381.166 1403.7 382.514 1402.93 383.543C1400.64 386.514 1399.38 390.308 1399.63 394.4C1400.14 402.514 1406.86 409.143 1414.99 409.508C1424.3 409.943 1431.95 402.537 1431.95 393.348C1431.98 389.668 1430.72 386.263 1428.62 383.543Z" fill="#45B3E6"/>
<path d="M1459.11 388.388C1459.22 387.588 1459.25 386.766 1459.18 385.92C1458.72 381.211 1454.97 377.371 1450.26 376.868C1444.16 376.183 1438.99 380.96 1438.99 386.926C1438.99 387.314 1439.02 387.703 1439.06 388.068C1439.47 391.748 1439.06 395.52 1437.58 398.903C1436.78 400.686 1436.41 402.697 1436.55 404.823C1436.96 411.063 1441.99 416.137 1448.23 416.571C1455.59 417.074 1461.74 411.246 1461.74 404C1461.74 402.194 1461.37 400.503 1460.69 398.948C1459.2 395.611 1458.58 391.954 1459.11 388.388Z" fill="#45B3E6"/>
<path d="M1448.53 390.148H1446.74V431.977H1448.53V390.148Z" fill="#031E5F"/>
<path d="M1415.43 376.754H1413.65V431.977H1415.43V376.754Z" fill="#031E5F"/>
<path d="M817.509 417.12C786.263 410.446 781.486 398.24 744.046 392.572C702.08 386.217 690.56 401.966 664.16 394.766C628.229 384.983 603.612 410.674 551.726 399.954C513.6 392.069 478.354 422.583 431.017 431.977H484.114H997.532V390.583C925.029 363.086 848.412 423.726 817.509 417.12Z" fill="#063EC3"/>
</svg>
