<svg width="48" height="48" viewBox="0 0 48 48" fill="none" xmlns="http://www.w3.org/2000/svg">
<path d="M38.4997 10C38.3997 10 38.1997 10 38.0997 9.90005C37.8997 9.70005 37.8997 9.40005 38.0997 9.20005L42.0997 5.20005C42.2997 5.00005 42.5997 5.00005 42.7997 5.20005C42.9997 5.40005 42.9997 5.70005 42.7997 5.90005L38.7997 9.90005C38.7997 10 38.5997 10 38.4997 10Z" fill="url(#paint0_linear)"/>
<path d="M36.4998 9C36.1998 9 35.9998 8.8 35.9998 8.5V3.5C35.9998 3.2 36.1998 3 36.4998 3C36.7998 3 36.9998 3.2 36.9998 3.5V8.5C36.9998 8.8 36.7998 9 36.4998 9Z" fill="url(#paint1_linear)"/>
<path d="M44.4998 12H39.4998C39.1998 12 38.9998 11.8 38.9998 11.5C38.9998 11.2 39.1998 11 39.4998 11H44.4998C44.7998 11 44.9998 11.2 44.9998 11.5C44.9998 11.8 44.7998 12 44.4998 12Z" fill="url(#paint2_linear)"/>
<path d="M5.49971 43C5.39971 43 5.19971 43 5.09971 42.9C4.89971 42.7 4.89971 42.4 5.09971 42.2L9.09971 38.2C9.29971 38 9.59971 38 9.79971 38.2C9.99971 38.4 9.99971 38.7 9.79971 38.9L5.79971 42.9C5.79971 43 5.59971 43 5.49971 43Z" fill="url(#paint3_linear)"/>
<path d="M11.4998 45C11.1998 45 10.9998 44.8 10.9998 44.5V39.5C10.9998 39.2 11.1998 39 11.4998 39C11.7998 39 11.9998 39.2 11.9998 39.5V44.5C11.9998 44.8 11.7998 45 11.4998 45Z" fill="url(#paint4_linear)"/>
<path d="M8.49976 37H3.49976C3.19976 37 2.99976 36.8 2.99976 36.5C2.99976 36.2 3.19976 36 3.49976 36H8.49976C8.79976 36 8.99976 36.2 8.99976 36.5C8.99976 36.8 8.79976 37 8.49976 37Z" fill="url(#paint5_linear)"/>
<path d="M29.7998 12.8C28.0998 13.4 27.1998 15.2 27.5998 16.8L28.4998 20.2L25.9998 17.7C23.2998 15.2 18.0998 10.3 17.9998 10.2C17.2998 9.5 16.4998 9.1 15.6998 9C15.1998 9 14.7998 9.1 14.4998 9.4C13.6998 10.2 13.8998 11.8 14.9998 13L23.1998 22.3C18.8998 18.2 11.6998 11.3 11.5998 11.3C10.3998 10.1 8.89976 9.9 7.99976 10.7C7.69976 11 7.49976 11.4 7.49976 11.9C7.49976 12.7 7.89976 13.6 8.59976 14.2L19.1998 26.2C15.5998 22.8 8.79976 16.6 8.69976 16.5C7.59976 15.4 5.99976 15.1 5.19976 16C4.89976 16.3 4.69976 16.7 4.79976 17.2C4.79976 18 5.19976 18.8 5.89976 19.5L15.9998 29.7L8.49976 23.6C7.19976 22.5 5.69976 22.4 4.89976 23.2C4.59976 23.5 4.49976 23.9 4.49976 24.4C4.49976 25.2 4.99976 26 5.69976 26.6L17.8998 39C22.1998 43.3 29.1998 43.3 33.4998 39L36.1998 36.3C39.7998 32.7 40.4998 27 37.6998 22.6L31.8998 13.5C31.3998 12.8 30.5998 12.5 29.7998 12.8Z" fill="url(#paint6_radial)"/>
<path opacity="0.25" d="M29.7998 12.8C28.0998 13.4 27.1998 15.2 27.5998 16.8L28.4998 20.2L25.9998 17.7C23.2998 15.2 18.0998 10.3 17.9998 10.2C17.2998 9.5 16.4998 9.1 15.6998 9C15.1998 9 14.7998 9.1 14.4998 9.4C13.6998 10.2 13.8998 11.8 14.9998 13L23.1998 22.3C18.8998 18.2 11.6998 11.3 11.5998 11.3C10.3998 10.1 8.89976 9.9 7.99976 10.7C7.69976 11 7.49976 11.4 7.49976 11.9C7.49976 12.7 7.89976 13.6 8.59976 14.2L19.1998 26.2C15.5998 22.8 8.79976 16.6 8.69976 16.5C7.59976 15.4 5.99976 15.1 5.19976 16C4.89976 16.3 4.69976 16.7 4.79976 17.2C4.79976 18 5.19976 18.8 5.89976 19.5L15.9998 29.7L8.49976 23.6C7.19976 22.5 5.69976 22.4 4.89976 23.2C4.59976 23.5 4.49976 23.9 4.49976 24.4C4.49976 25.2 4.99976 26 5.69976 26.6L17.8998 39C22.1998 43.3 29.1998 43.3 33.4998 39L36.1998 36.3C39.7998 32.7 40.4998 27 37.6998 22.6L31.8998 13.5C31.3998 12.8 30.5998 12.5 29.7998 12.8Z" fill="#C87E0E"/>
<path opacity="0.23" d="M31.0998 16.2L31.9998 19.6L29.4998 17.1C28.9998 16.6 28.2998 16 27.6998 15.4C27.5998 15.9 27.5998 16.4 27.6998 16.9L28.5998 20.3L26.0998 17.8C23.3998 15.3 18.1998 10.4 18.0998 10.3C17.8998 10.1 17.7998 10 17.5998 9.90002C17.4998 10.7 17.7998 11.7 18.5998 12.5L26.7998 21.8C22.4998 17.7 15.2998 10.8 15.1998 10.8C14.8998 10.5 14.5998 10.3 14.1998 10.1C13.7998 11 14.0998 12.2 14.9998 13.2L23.1998 22.5C18.8998 18.4 11.6998 11.5 11.5998 11.5C11.3998 11.3 11.2998 11.2 11.0998 11.1C11.0998 11.2 11.0998 11.3 11.0998 11.5C11.0998 12.3 11.4998 13.2 12.1998 13.8L22.7998 25.8C19.1998 22.4 12.3998 16.2 12.2998 16.1C11.3998 15.2 10.1998 14.9 9.2998 15.2L19.2998 26.5C15.6998 23.1 8.8998 16.9 8.7998 16.8C8.5998 16.6 8.4998 16.5 8.2998 16.4C8.2998 16.5 8.2998 16.7 8.2998 16.8C8.2998 17.6 8.6998 18.4 9.3998 19.1L19.3998 29L11.8998 22.9C10.7998 22 9.4998 21.7 8.5998 22.2L15.8998 29.6L8.3998 23.5C8.1998 23.4 8.0998 23.3 7.8998 23.1C7.8998 23.3 7.7998 23.5 7.7998 23.7C7.7998 24.5 8.2998 25.3 8.9998 25.9L21.1998 38.3C23.3998 40.5 26.2998 41.6 29.1998 41.5C30.6998 41 32.0998 40.1 33.2998 38.9L35.9998 36.2C39.5998 32.6 40.2998 26.9 37.4998 22.5L31.6998 13.4C31.5998 13.3 31.5998 13.3 31.4998 13.2C31.0998 14.1 30.7998 15.1 31.0998 16.2Z" fill="#303030"/>
<path d="M33.9999 11.4C32.2999 12 31.3999 13.8 31.7999 15.4L32.6999 18.8L30.1999 16.3C27.4999 13.8 22.2999 8.89998 22.1999 8.79998C21.4999 8.09998 20.6999 7.69998 19.8999 7.59998C19.3999 7.59998 18.9999 7.69998 18.6999 7.99998C17.8999 8.79998 18.0999 10.4 19.1999 11.6L27.3999 20.9C22.9999 16.9 15.7999 9.99998 15.7999 9.99998C14.5999 8.79998 13.0999 8.59998 12.1999 9.39998C11.8999 9.69998 11.6999 10.1 11.6999 10.6C11.6999 11.4 12.0999 12.3 12.7999 12.9L23.3999 24.9C19.7999 21.5 12.9999 15.3 12.8999 15.2C11.6999 14.1 10.1999 13.8 9.29985 14.6C8.99985 14.9 8.79985 15.3 8.89985 15.8C8.89985 16.6 9.29985 17.4 9.99985 18.1L20.0999 28.3L12.5999 22.2C11.3999 21.1 9.79985 21 8.99985 21.8C8.69985 22.1 8.59985 22.5 8.59985 23C8.59985 23.8 9.09985 24.6 9.79985 25.2L21.9999 37.6C26.2999 41.9 33.2999 41.9 37.5999 37.6L40.2999 34.9C43.8999 31.3 44.5998 25.6 41.7999 21.2L35.9999 12.1C35.5999 11.4 34.7999 11.2 33.9999 11.4Z" fill="url(#paint7_radial)"/>
<path opacity="0.52" d="M16.3998 19.2C19.5998 22.3 21.6998 25.3 20.9998 25.9C20.3998 26.6 17.2998 24.6 14.0998 21.6C10.8998 18.6 8.79977 15.5 9.49977 14.9C10.1998 14.3 13.2998 16.1 16.3998 19.2Z" fill="url(#paint8_radial)"/>
<path opacity="0.52" d="M19.5997 14.4C22.8997 17.8 24.8997 21.1 24.1997 21.8C23.4997 22.5 20.1997 20.3 16.9997 16.9C13.7997 13.5 11.6997 10.2 12.3997 9.49996C13.0997 8.89996 16.2997 11 19.5997 14.4Z" fill="url(#paint9_radial)"/>
<path opacity="0.52" d="M25.5996 12.8C28.5996 16 30.4996 19.1 29.7996 19.8C29.0996 20.5 26.0996 18.5 22.9996 15.3C19.8996 12.1 18.0996 8.99997 18.7996 8.29997C19.4996 7.59997 22.4996 9.59997 25.5996 12.8Z" fill="url(#paint10_radial)"/>
<path opacity="0.52" d="M15.4997 25.0999C18.2997 27.5999 19.9997 30.2999 19.2997 30.9999C18.5997 31.6999 15.7997 30.3999 12.9997 27.8999C10.1997 25.3999 8.49965 22.6999 9.19965 21.9999C9.79965 21.1999 12.6997 22.5999 15.4997 25.0999Z" fill="url(#paint11_radial)"/>
<defs>
<linearGradient id="paint0_linear" x1="43.3107" y1="4.55305" x2="38.0337" y2="10.085" gradientUnits="userSpaceOnUse">
<stop stop-color="#F1F7FE" stop-opacity="0"/>
<stop offset="0.006" stop-color="#EDF5FE" stop-opacity="0.012"/>
<stop offset="0.104" stop-color="#B8D5FA" stop-opacity="0.2"/>
<stop offset="0.2" stop-color="#8BBAF6" stop-opacity="0.384"/>
<stop offset="0.291" stop-color="#69A5F3" stop-opacity="0.559"/>
<stop offset="0.377" stop-color="#5096F2" stop-opacity="0.725"/>
<stop offset="0.456" stop-color="#418DF0" stop-opacity="0.876"/>
<stop offset="0.52" stop-color="#3C8AF0"/>
<stop offset="0.585" stop-color="#408DF0" stop-opacity="0.864"/>
<stop offset="0.657" stop-color="#4E95F1" stop-opacity="0.715"/>
<stop offset="0.732" stop-color="#64A2F3" stop-opacity="0.559"/>
<stop offset="0.808" stop-color="#82B4F5" stop-opacity="0.399"/>
<stop offset="0.887" stop-color="#AACCF8" stop-opacity="0.236"/>
<stop offset="0.965" stop-color="#DAE9FC" stop-opacity="0.072"/>
<stop offset="1" stop-color="#F1F7FE" stop-opacity="0"/>
</linearGradient>
<linearGradient id="paint1_linear" x1="36.4998" y1="2.803" x2="36.4998" y2="8.888" gradientUnits="userSpaceOnUse">
<stop stop-color="#F1F7FE" stop-opacity="0"/>
<stop offset="0.006" stop-color="#EDF5FE" stop-opacity="0.012"/>
<stop offset="0.104" stop-color="#B8D5FA" stop-opacity="0.2"/>
<stop offset="0.2" stop-color="#8BBAF6" stop-opacity="0.384"/>
<stop offset="0.291" stop-color="#69A5F3" stop-opacity="0.559"/>
<stop offset="0.377" stop-color="#5096F2" stop-opacity="0.725"/>
<stop offset="0.456" stop-color="#418DF0" stop-opacity="0.876"/>
<stop offset="0.52" stop-color="#3C8AF0"/>
<stop offset="0.585" stop-color="#408DF0" stop-opacity="0.864"/>
<stop offset="0.657" stop-color="#4E95F1" stop-opacity="0.715"/>
<stop offset="0.732" stop-color="#64A2F3" stop-opacity="0.559"/>
<stop offset="0.808" stop-color="#82B4F5" stop-opacity="0.399"/>
<stop offset="0.887" stop-color="#AACCF8" stop-opacity="0.236"/>
<stop offset="0.965" stop-color="#DAE9FC" stop-opacity="0.072"/>
<stop offset="1" stop-color="#F1F7FE" stop-opacity="0"/>
</linearGradient>
<linearGradient id="paint2_linear" x1="38.9998" y1="11.5" x2="44.9998" y2="11.5" gradientUnits="userSpaceOnUse">
<stop stop-color="#F1F7FE" stop-opacity="0"/>
<stop offset="0.006" stop-color="#EDF5FE" stop-opacity="0.012"/>
<stop offset="0.104" stop-color="#B8D5FA" stop-opacity="0.2"/>
<stop offset="0.2" stop-color="#8BBAF6" stop-opacity="0.384"/>
<stop offset="0.291" stop-color="#69A5F3" stop-opacity="0.559"/>
<stop offset="0.377" stop-color="#5096F2" stop-opacity="0.725"/>
<stop offset="0.456" stop-color="#418DF0" stop-opacity="0.876"/>
<stop offset="0.52" stop-color="#3C8AF0"/>
<stop offset="0.585" stop-color="#408DF0" stop-opacity="0.864"/>
<stop offset="0.657" stop-color="#4E95F1" stop-opacity="0.715"/>
<stop offset="0.732" stop-color="#64A2F3" stop-opacity="0.559"/>
<stop offset="0.808" stop-color="#82B4F5" stop-opacity="0.399"/>
<stop offset="0.887" stop-color="#AACCF8" stop-opacity="0.236"/>
<stop offset="0.965" stop-color="#DAE9FC" stop-opacity="0.072"/>
<stop offset="1" stop-color="#F1F7FE" stop-opacity="0"/>
</linearGradient>
<linearGradient id="paint3_linear" x1="5.02171" y1="43.166" x2="9.80871" y2="38.017" gradientUnits="userSpaceOnUse">
<stop stop-color="#F1F7FE" stop-opacity="0"/>
<stop offset="0.006" stop-color="#EDF5FE" stop-opacity="0.012"/>
<stop offset="0.104" stop-color="#B8D5FA" stop-opacity="0.2"/>
<stop offset="0.2" stop-color="#8BBAF6" stop-opacity="0.384"/>
<stop offset="0.291" stop-color="#69A5F3" stop-opacity="0.559"/>
<stop offset="0.377" stop-color="#5096F2" stop-opacity="0.725"/>
<stop offset="0.456" stop-color="#418DF0" stop-opacity="0.876"/>
<stop offset="0.52" stop-color="#3C8AF0"/>
<stop offset="0.585" stop-color="#408DF0" stop-opacity="0.864"/>
<stop offset="0.657" stop-color="#4E95F1" stop-opacity="0.715"/>
<stop offset="0.732" stop-color="#64A2F3" stop-opacity="0.559"/>
<stop offset="0.808" stop-color="#82B4F5" stop-opacity="0.399"/>
<stop offset="0.887" stop-color="#AACCF8" stop-opacity="0.236"/>
<stop offset="0.965" stop-color="#DAE9FC" stop-opacity="0.072"/>
<stop offset="1" stop-color="#F1F7FE" stop-opacity="0"/>
</linearGradient>
<linearGradient id="paint4_linear" x1="11.4998" y1="38.803" x2="11.4998" y2="45.122" gradientUnits="userSpaceOnUse">
<stop stop-color="#F1F7FE" stop-opacity="0"/>
<stop offset="0.006" stop-color="#EDF5FE" stop-opacity="0.012"/>
<stop offset="0.104" stop-color="#B8D5FA" stop-opacity="0.2"/>
<stop offset="0.2" stop-color="#8BBAF6" stop-opacity="0.384"/>
<stop offset="0.291" stop-color="#69A5F3" stop-opacity="0.559"/>
<stop offset="0.377" stop-color="#5096F2" stop-opacity="0.725"/>
<stop offset="0.456" stop-color="#418DF0" stop-opacity="0.876"/>
<stop offset="0.52" stop-color="#3C8AF0"/>
<stop offset="0.585" stop-color="#408DF0" stop-opacity="0.864"/>
<stop offset="0.657" stop-color="#4E95F1" stop-opacity="0.715"/>
<stop offset="0.732" stop-color="#64A2F3" stop-opacity="0.559"/>
<stop offset="0.808" stop-color="#82B4F5" stop-opacity="0.399"/>
<stop offset="0.887" stop-color="#AACCF8" stop-opacity="0.236"/>
<stop offset="0.965" stop-color="#DAE9FC" stop-opacity="0.072"/>
<stop offset="1" stop-color="#F1F7FE" stop-opacity="0"/>
</linearGradient>
<linearGradient id="paint5_linear" x1="2.99976" y1="36.5" x2="8.99976" y2="36.5" gradientUnits="userSpaceOnUse">
<stop stop-color="#F1F7FE" stop-opacity="0"/>
<stop offset="0.006" stop-color="#EDF5FE" stop-opacity="0.012"/>
<stop offset="0.104" stop-color="#B8D5FA" stop-opacity="0.2"/>
<stop offset="0.2" stop-color="#8BBAF6" stop-opacity="0.384"/>
<stop offset="0.291" stop-color="#69A5F3" stop-opacity="0.559"/>
<stop offset="0.377" stop-color="#5096F2" stop-opacity="0.725"/>
<stop offset="0.456" stop-color="#418DF0" stop-opacity="0.876"/>
<stop offset="0.52" stop-color="#3C8AF0"/>
<stop offset="0.585" stop-color="#408DF0" stop-opacity="0.864"/>
<stop offset="0.657" stop-color="#4E95F1" stop-opacity="0.715"/>
<stop offset="0.732" stop-color="#64A2F3" stop-opacity="0.559"/>
<stop offset="0.808" stop-color="#82B4F5" stop-opacity="0.399"/>
<stop offset="0.887" stop-color="#AACCF8" stop-opacity="0.236"/>
<stop offset="0.965" stop-color="#DAE9FC" stop-opacity="0.072"/>
<stop offset="1" stop-color="#F1F7FE" stop-opacity="0"/>
</linearGradient>
<radialGradient id="paint6_radial" cx="0" cy="0" r="1" gradientUnits="userSpaceOnUse" gradientTransform="translate(18.4911 23.6286) rotate(-45.001) scale(19.698 20.7952)">
<stop stop-color="#FFE16E"/>
<stop offset="0.629" stop-color="#FFD226"/>
<stop offset="0.75" stop-color="#FDCD23"/>
<stop offset="0.9" stop-color="#F6BD1B"/>
<stop offset="1" stop-color="#F0AF13"/>
</radialGradient>
<radialGradient id="paint7_radial" cx="0" cy="0" r="1" gradientUnits="userSpaceOnUse" gradientTransform="translate(22.6807 22.2681) rotate(-45.001) scale(19.698 20.7952)">
<stop stop-color="#FFE16E"/>
<stop offset="0.629" stop-color="#FFD226"/>
<stop offset="0.75" stop-color="#FDCD23"/>
<stop offset="0.9" stop-color="#F6BD1B"/>
<stop offset="1" stop-color="#F0AF13"/>
</radialGradient>
<radialGradient id="paint8_radial" cx="0" cy="0" r="1" gradientUnits="userSpaceOnUse" gradientTransform="translate(15.3474 20.393) rotate(-46.2869) scale(1.47722 7.03407)">
<stop offset="0.425" stop-color="#FFE16E"/>
<stop offset="1" stop-color="#FFE16E" stop-opacity="0"/>
</radialGradient>
<radialGradient id="paint9_radial" cx="0" cy="0" r="1" gradientUnits="userSpaceOnUse" gradientTransform="translate(18.2791 15.7935) rotate(-43.8775) scale(1.63033 7.50321)">
<stop offset="0.425" stop-color="#FFE16E"/>
<stop offset="1" stop-color="#FFE16E" stop-opacity="0"/>
</radialGradient>
<radialGradient id="paint10_radial" cx="0" cy="0" r="1" gradientUnits="userSpaceOnUse" gradientTransform="translate(24.3578 14.0382) rotate(-43.878) scale(1.59932 6.98095)">
<stop offset="0.425" stop-color="#FFE16E"/>
<stop offset="1" stop-color="#FFE16E" stop-opacity="0"/>
</radialGradient>
<radialGradient id="paint11_radial" cx="0" cy="0" r="1" gradientUnits="userSpaceOnUse" gradientTransform="translate(14.1843 26.4293) rotate(-48.0128) scale(1.69903 5.95997)">
<stop offset="0.425" stop-color="#FFE16E"/>
<stop offset="1" stop-color="#FFE16E" stop-opacity="0"/>
</radialGradient>
</defs>
</svg>
