<svg width="238" height="237" viewBox="0 0 238 237" fill="none" xmlns="http://www.w3.org/2000/svg">
<path d="M155.85 0.401762C160.695 -0.0830539 165.497 1.66477 168.897 5.15046L232.773 70.6394C236.173 74.1251 237.801 78.9693 237.195 83.8007L225.82 174.573C225.214 179.404 222.442 183.697 218.287 186.236L140.226 233.938C136.071 236.477 130.987 236.986 126.411 235.32L40.446 204.032C35.8705 202.366 32.3023 198.708 30.7515 194.092L1.61573 107.374C0.0649533 102.758 0.700386 97.6877 3.34215 93.5975L52.9754 16.7502C55.6171 12.6599 59.9777 9.99525 64.8227 9.51044L155.85 0.401762Z" fill="#063EC3"/>
</svg>
