<svg width="229" height="257" viewBox="0 0 229 257" fill="none" xmlns="http://www.w3.org/2000/svg">
<path d="M92.54 14.8043C100.957 -4.28537 128.043 -4.28535 136.46 14.8043L148.287 41.6266C152.507 51.1985 162.441 56.934 172.841 55.8031L201.983 52.6342C222.724 50.3788 236.267 73.8358 223.943 90.6701L206.628 114.323C200.449 122.764 200.449 134.236 206.628 142.677L223.943 166.33C236.267 183.164 222.724 206.621 201.983 204.366L172.841 201.197C162.441 200.066 152.507 205.802 148.287 215.373L136.46 242.196C128.043 261.285 100.957 261.285 92.5399 242.196L80.7133 215.373C76.4928 205.802 66.5585 200.066 56.1587 201.197L27.0166 204.366C6.27595 206.621 -7.26694 183.164 5.05659 166.33L22.372 142.677C28.5513 134.236 28.5513 122.764 22.372 114.323L5.05658 90.6701C-7.26696 73.8358 6.27598 50.3788 27.0166 52.6342L56.1588 55.8031C66.5585 56.934 76.4928 51.1985 80.7133 41.6266L92.54 14.8043Z" fill="#FF9A23"/>
</svg>
