<svg width="268" height="268" viewBox="0 0 268 268" fill="none" xmlns="http://www.w3.org/2000/svg">
<path d="M131.339 11.2226C148.566 -6.67272 178.59 -0.290976 187.048 23.064V23.064C191.937 36.5625 204.874 45.4537 219.228 45.1805V45.1805C244.063 44.7077 260.78 70.4503 250.247 92.9459V92.9459C244.159 105.948 247.02 121.383 257.363 131.339V131.339C275.258 148.566 268.877 178.59 245.522 187.048V187.048C232.023 191.937 223.132 204.874 223.405 219.228V219.228C223.878 244.063 198.135 260.78 175.64 250.247V250.247C162.638 244.159 147.203 247.02 137.247 257.363V257.363C120.02 275.258 89.996 268.877 81.5373 245.522V245.522C76.6484 232.023 63.7117 223.132 49.3576 223.405V223.405C24.5226 223.878 7.80517 198.135 18.3384 175.64V175.64C24.4263 162.638 21.5657 147.203 11.2226 137.246V137.246C-6.6727 120.02 -0.290963 89.996 23.064 81.5373V81.5373C36.5626 76.6484 45.4537 63.7116 45.1805 49.3576V49.3576C44.7077 24.5226 70.4503 7.80515 92.9459 18.3384V18.3384C105.948 24.4263 121.383 21.5657 131.339 11.2226V11.2226Z" fill="#93E1C9"/>
</svg>
