<svg width="364" height="240" viewBox="0 0 364 240" fill="none" xmlns="http://www.w3.org/2000/svg">
<path d="M178.39 0.836179C180.765 0.286007 183.235 0.286009 185.61 0.836181L325.227 33.1732C330.537 34.4032 334.857 38.2527 336.687 43.3877L362.085 114.627C363.323 118.102 363.323 121.898 362.085 125.373L336.687 196.612C334.857 201.747 330.537 205.597 325.227 206.827L185.61 239.164C183.235 239.714 180.765 239.714 178.39 239.164L38.7735 206.827C33.4626 205.597 29.1435 201.747 27.3128 196.612L1.91547 125.373C0.676677 121.898 0.676674 118.102 1.91547 114.627L27.3128 43.3877C29.1435 38.2528 33.4626 34.4032 38.7735 33.1732L178.39 0.836179Z" fill="#F2F2F2"/>
</svg>
