<svg width="56" height="56" viewBox="0 0 56 56" fill="none" xmlns="http://www.w3.org/2000/svg">
<path d="M46.4188 18.3313C45.8937 17.8063 45.0625 17.8063 44.5812 18.3313C44.0563 18.8563 44.0563 19.6875 44.5812 20.1687L51.1 26.6875H29.3125V1.75C29.3125 1.00625 28.7437 0.4375 28 0.4375C27.2563 0.4375 26.6875 1.00625 26.6875 1.75V26.6875H14.875C6.9125 26.6875 0.4375 33.1625 0.4375 41.125C0.4375 49.0875 6.9125 55.5625 14.875 55.5625C22.8375 55.5625 29.3125 49.0875 29.3125 41.125V36.75C29.3125 36.0062 28.7437 35.4375 28 35.4375C27.2563 35.4375 26.6875 36.0062 26.6875 36.75V41.125C26.6875 47.6437 21.3937 52.9375 14.875 52.9375C8.35625 52.9375 3.0625 47.6437 3.0625 41.125C3.0625 34.6063 8.35625 29.3125 14.875 29.3125H51.1L44.5812 35.8312C44.0563 36.3563 44.0563 37.1875 44.5812 37.6688C44.8438 37.9312 45.1937 38.0625 45.5 38.0625C45.8063 38.0625 46.1562 37.9312 46.4188 37.6688L55.1688 28.9187C55.6937 28.3937 55.6937 27.5625 55.1688 27.0813L46.4188 18.3313Z" fill="#45B3E6"/>
</svg>
