<svg width="56" height="56" viewBox="0 0 56 56" fill="none" xmlns="http://www.w3.org/2000/svg">
<path d="M55.3876 24.325C55.5188 24.1063 55.5626 23.8875 55.5626 23.625C55.5626 23.1875 55.3438 22.75 54.9501 22.4875C54.3376 22.0938 53.5063 22.3125 53.1563 22.925C48.6938 30.2313 44.6251 35.4375 40.7751 38.85C40.2501 39.3313 40.1626 40.1625 40.6438 40.6875C41.1251 41.2125 41.9563 41.3 42.4813 40.8188C46.5938 37.2313 50.7938 31.85 55.3876 24.325ZM23.6251 55.5625C31.7188 55.5625 38.0626 43.4438 38.0626 28.0438C38.0626 27.9125 38.0626 26.9938 38.0626 26.95C37.7563 17.3688 33.6438 10.0625 28.4376 10.0625C23.0563 10.0625 18.8126 17.9375 18.8126 28C18.8126 36.4438 21.9626 43.4438 26.6876 45.4563C27.3438 45.7625 28.1313 45.4125 28.3938 44.7563C28.4813 44.5813 28.4813 44.4063 28.4813 44.2313C28.4813 43.7063 28.1751 43.225 27.6938 43.0063C24.6751 41.7375 21.4376 36.4875 21.4376 28C21.4376 20.7375 24.3251 12.6875 28.4376 12.6875C32.5501 12.6875 35.4376 20.7375 35.4376 28C35.4376 41.5188 30.0126 52.9375 23.6251 52.9375C17.0188 52.9375 9.62506 42.7 9.62506 28C9.62506 20.475 10.6313 12.425 11.2876 8.1375L14.8751 13.0813C15.3126 13.65 16.1001 13.7813 16.7126 13.3875C17.0626 13.125 17.2376 12.7313 17.2376 12.3375C17.2376 12.075 17.1501 11.8125 16.9751 11.55L11.5501 4.025C11.1126 3.45625 10.3251 3.325 9.71256 3.71875L2.23131 9.1875C1.66256 9.625 1.53131 10.4125 1.92506 11.025C2.36256 11.5938 3.15006 11.725 3.76256 11.3313L8.70631 7.74375C8.05006 12.075 7.00006 20.3 7.00006 28C7.00006 44.4938 15.5751 55.5625 23.6251 55.5625Z" fill="#FF9A23"/>
</svg>
