<svg width="72" height="72" viewBox="0 0 72 72" fill="none" xmlns="http://www.w3.org/2000/svg">
<path d="M9.2249 41.9625C10.8562 43.5937 13.0499 44.4375 15.1874 44.4375C17.3249 44.4375 19.5187 43.5937 21.1499 41.9625C22.3874 40.725 23.1187 39.2625 23.4562 37.6875H59.5124L50.4562 46.7437C49.7812 47.4187 49.7812 48.4875 50.4562 49.1062C50.7937 49.4437 51.2437 49.6124 51.6374 49.6124C52.0312 49.6124 52.4812 49.4437 52.8187 49.1062L64.7437 37.1812C65.4187 36.5062 65.4187 35.4375 64.7437 34.8187L52.8187 22.8937C52.1437 22.2187 51.0749 22.2187 50.4562 22.8937C49.7812 23.5687 49.7812 24.6375 50.4562 25.2562L59.5124 34.3125H23.4562C23.1187 32.7375 22.3874 31.275 21.1499 30.0375C17.8874 26.775 12.4874 26.775 9.2249 30.0375C5.90615 33.3 5.90615 38.7 9.2249 41.9625ZM11.5874 32.3999C12.5999 31.3874 13.8937 30.9375 15.1874 30.9375C16.4812 30.9375 17.7749 31.4437 18.7874 32.3999C20.7562 34.3687 20.7562 37.575 18.7874 39.5437C16.8187 41.5125 13.6124 41.5125 11.6437 39.5437C9.61865 37.6312 9.61865 34.3687 11.5874 32.3999Z" fill="#FF9A23"/>
</svg>
