<svg width="1920" height="60" viewBox="0 0 1920 60" fill="none" xmlns="http://www.w3.org/2000/svg">
<mask id="mask0" mask-type="alpha" maskUnits="userSpaceOnUse" x="0" y="0" width="1920" height="60">
<rect x="1920" y="59.9999" width="1920" height="60" transform="rotate(180 1920 59.9999)" fill="#C4C4C4"/>
</mask>
<g mask="url(#mask0)">
<path d="M1919.98 34.4208C1919.98 34.4208 1772.38 43.4208 1696.78 51.4209C1621.19 59.4209 1570.79 34.4209 1448.39 34.4209C1325.99 34.4209 1315.19 41.9209 1238.39 41.9209C1199.78 41.9209 1065.49 30.1478 997.191 34.4209C929.633 38.6476 868.621 51.4209 837.592 51.4209C806.563 51.4209 744.938 38.6476 685.794 34.4209C625.999 30.1479 568.673 34.421 535.795 34.421C470.395 34.421 379.196 51.421 271.797 51.421C164.398 51.421 -0.000299171 34.421 -0.000299171 34.421L-0.000404078 -1165.58L1919.98 -1165.58L1919.98 34.4208Z" fill="#031E5F"/>
<path d="M0.0170895 -1408C0.0170895 -1408 147.616 -1418.66 223.215 -1428.13C298.814 -1437.6 349.214 -1408 471.613 -1408C594.012 -1408 604.812 -1416.88 681.611 -1416.88C720.22 -1416.88 854.509 -1402.94 922.809 -1408C990.366 -1413 1051.38 -1428.13 1082.41 -1428.13C1113.44 -1428.13 1175.06 -1413 1234.21 -1408C1294 -1402.94 1351.33 -1408 1384.2 -1408C1449.6 -1408 1540.8 -1428.13 1648.2 -1428.13C1755.6 -1428.13 1920 -1408 1920 -1408L1920 13L0.0170646 13L0.0170895 -1408Z" fill="#031E5F"/>
</g>
</svg>
