<svg width="1920" height="60" viewBox="0 0 1920 60" fill="none" xmlns="http://www.w3.org/2000/svg">
<mask id="mask0" mask-type="alpha" maskUnits="userSpaceOnUse" x="0" y="0" width="1920" height="60">
<rect width="1920" height="60" fill="#C4C4C4"/>
</mask>
<g mask="url(#mask0)">
<path d="M0.0174561 25.5791C0.0174561 25.5791 147.616 16.5791 223.215 8.57907C298.815 0.579073 349.214 25.579 471.613 25.579C594.012 25.579 604.812 18.0791 681.611 18.0791C720.221 18.0791 854.509 29.8522 922.809 25.5791C990.367 21.3524 1051.38 8.57907 1082.41 8.57907C1113.44 8.57907 1175.06 21.3524 1234.21 25.5791C1294 29.8522 1351.33 25.5791 1384.2 25.5791C1449.6 25.5791 1540.8 8.57907 1648.2 8.57907C1755.6 8.57907 1920 25.5791 1920 25.5791V1225.58H0.0174561V25.5791Z" fill="#031E5F"/>
<path d="M1919.98 1468C1919.98 1468 1772.38 1478.66 1696.78 1488.13C1621.19 1497.6 1570.79 1468 1448.39 1468C1325.99 1468 1315.19 1476.88 1238.39 1476.88C1199.78 1476.88 1065.49 1462.94 997.191 1468C929.633 1473 868.621 1488.13 837.592 1488.13C806.563 1488.13 744.938 1473 685.794 1468C625.999 1462.94 568.673 1468 535.795 1468C470.395 1468 379.196 1488.13 271.797 1488.13C164.398 1488.13 -0.000295238 1468 -0.000295238 1468L-0.000146166 47L1919.98 47.0001L1919.98 1468Z" fill="#031E5F"/>
</g>
</svg>
