<svg width="50" height="40" viewBox="0 0 50 40" fill="none" xmlns="http://www.w3.org/2000/svg">
<path d="M24.4375 0.03125C17.4375 0.03125 11.2685 3.79375 7.85604 9.4375C7.76854 9.4375 7.68138 9.48108 7.55013 9.48108C3.56888 10.7498 1.20655 12.85 0.725302 15.5625C0.244052 18.3188 2.03763 21.2059 5.36263 23.7434C7.20013 32.6684 15.075 39.4062 24.4375 39.4062C31.4375 39.4062 37.6064 35.6437 41.0189 30C45.0001 28.775 47.6248 26.6313 48.106 23.875C48.5873 21.1625 46.925 18.2311 43.4687 15.6061C41.6312 6.72483 33.8 0.03125 24.4375 0.03125ZM8.73104 0.764404C8.39198 0.764404 8.05309 0.884375 7.81246 1.125C7.54996 1.3875 7.41854 1.69358 7.41854 2.04358C7.41854 2.39358 7.54996 2.74341 7.81246 2.96216C8.03121 3.18091 8.38104 3.35608 8.73104 3.35608C9.08104 3.35608 9.43087 3.22466 9.64962 2.96216C9.91212 2.69966 10.0435 2.39358 10.0435 2.04358C10.0435 1.69358 9.91212 1.34375 9.64962 1.125C9.40899 0.884375 9.0701 0.764404 8.73104 0.764404ZM24.4375 2.65625C33.7562 2.65625 41.2812 10.3125 41.2812 19.7188C41.2812 22.65 40.5376 25.4062 39.2689 27.8125C39.0939 27.8563 38.9628 27.9003 38.7878 27.9441C34.4128 28.9503 28.8121 28.9497 22.9934 27.8997C17.1746 26.8934 11.8809 24.9689 8.11837 22.5189C7.98712 22.4314 7.85638 22.3441 7.76888 22.2566C7.63763 21.4253 7.59371 20.5502 7.59371 19.6752C7.59371 10.3127 15.1187 2.65625 24.4375 2.65625ZM23.125 7.46875C22.6608 7.46875 22.2157 7.65312 21.8875 7.98131C21.5593 8.3095 21.375 8.75462 21.375 9.21875C21.375 9.68288 21.5593 10.128 21.8875 10.4562C22.2157 10.7844 22.6608 10.9688 23.125 10.9688C23.5891 10.9688 24.0342 10.7844 24.3624 10.4562C24.6906 10.128 24.875 9.68288 24.875 9.21875C24.875 8.75462 24.6906 8.3095 24.3624 7.98131C24.0342 7.65312 23.5891 7.46875 23.125 7.46875ZM6.14962 12.8939C5.36212 15.0377 4.92513 17.3125 4.92513 19.7188V19.9375C3.70013 18.5375 3.13087 17.1813 3.30587 16C3.52462 14.8187 4.48712 13.7689 6.14962 12.8939ZM36.25 15.3438C35.5538 15.3438 34.8861 15.6203 34.3938 16.1126C33.9015 16.6049 33.625 17.2726 33.625 17.9688C33.625 18.6649 33.9015 19.3326 34.3938 19.8249C34.8861 20.3172 35.5538 20.5938 36.25 20.5938C36.9462 20.5938 37.6138 20.3172 38.1061 19.8249C38.5984 19.3326 38.875 18.6649 38.875 17.9688C38.875 17.2726 38.5984 16.6049 38.1061 16.1126C37.6138 15.6203 36.9462 15.3438 36.25 15.3438ZM43.9498 19.5C45.1748 20.9 45.7441 22.2562 45.5691 23.4375C45.3503 24.6188 44.3441 25.7123 42.7253 26.5436C43.5128 24.3998 43.9498 22.125 43.9498 19.7188V19.5ZM20.9375 19.7623C20.0672 19.7623 19.2326 20.108 18.6173 20.7234C18.0019 21.3387 17.6562 22.1733 17.6562 23.0436C17.6562 23.9138 18.0019 24.7484 18.6173 25.3638C19.2326 25.9791 20.0672 26.3248 20.9375 26.3248C21.8077 26.3248 22.6423 25.9791 23.2577 25.3638C23.873 24.7484 24.2187 23.9138 24.2187 23.0436C24.2187 22.1733 23.873 21.3387 23.2577 20.7234C22.6423 20.108 21.8077 19.7623 20.9375 19.7623V19.7623ZM8.73104 25.8873C12.4498 27.8998 17.1746 29.5186 22.5559 30.4811C25.6621 31.0498 28.681 31.3125 31.481 31.3125C33.5373 31.3125 35.4184 31.1811 37.2121 30.9186C34.0621 34.5061 29.5125 36.7812 24.4375 36.7812C17.3062 36.7812 11.181 32.2748 8.73104 25.8873ZM48.106 34.845C47.767 34.845 47.4281 34.9658 47.1875 35.2064C46.925 35.4689 46.7935 35.775 46.7935 36.125C46.7935 36.475 46.925 36.8248 47.1875 37.0436C47.45 37.3061 47.756 37.4375 48.106 37.4375C48.456 37.4375 48.8059 37.3061 49.0246 37.0436C49.2871 36.7811 49.4185 36.475 49.4185 36.125C49.4185 35.775 49.2871 35.4252 49.0246 35.2064C48.784 34.9658 48.4451 34.845 48.106 34.845Z" fill="white"/>
</svg>
