<svg width="53" height="60" viewBox="0 0 53 60" fill="none" xmlns="http://www.w3.org/2000/svg">
<path d="M42.1504 0.950195C37.7504 0.950195 34.1504 4.5502 34.1504 8.9502V10.6504C34.1504 11.5004 34.8004 12.1504 35.6504 12.1504C40.0504 12.1004 43.6504 8.54961 43.6504 4.09961V2.4502C43.6504 1.6002 43.0004 0.950195 42.1504 0.950195ZM40.6504 4.2002C40.6504 6.4002 39.1504 8.25039 37.1504 8.90039C37.1504 6.70039 38.6504 4.8002 40.6504 4.2002ZM26.5498 6.59961C26.2805 6.59964 26.0139 6.6527 25.7652 6.75579C25.5164 6.85887 25.2904 7.00995 25.1001 7.20039C24.9097 7.39083 24.7588 7.6169 24.6558 7.86569C24.5528 8.11449 24.4999 8.38113 24.5 8.65039C24.5001 9.19402 24.716 9.71536 25.1004 10.0998C25.4848 10.4842 26.0062 10.7001 26.5498 10.7002C27.0934 10.7001 27.6148 10.4842 27.9992 10.0998C28.3836 9.71536 28.5996 9.19402 28.5996 8.65039C28.5997 8.38113 28.5468 8.11449 28.4438 7.86569C28.3408 7.6169 28.1899 7.39083 27.9995 7.20039C27.8092 7.00995 27.5832 6.85887 27.3344 6.75579C27.0857 6.6527 26.8191 6.59963 26.5498 6.59961V6.59961ZM11.0996 9.0498C10.2496 9.0498 9.59961 9.6998 9.59961 10.5498V13.5C9.59961 20.6 15.3502 26.3496 22.4502 26.3496C23.3002 26.3496 23.9502 25.6996 23.9502 24.8496V21.9004C23.9502 14.8004 18.1996 9.0498 11.0996 9.0498ZM12.5996 12.1504C17.3496 12.8504 20.9502 23.25 20.9502 23.25C16.2502 22.5 12.5996 18.4 12.5996 13.5V12.1504ZM32.6309 12.2188C32.2496 12.2125 31.8746 12.3504 31.5996 12.6504C28.6996 15.5504 27.0996 19.4496 27.0996 23.5996V39.8496C27.0496 40.5996 27.7498 41.25 28.5498 41.25C29.3998 41.25 30.0498 40.6 30.0498 39.75V23.5498C30.0498 20.1998 31.3502 17.1 33.7002 14.75C34.3002 14.15 34.3002 13.2004 33.7002 12.6504C33.4002 12.3754 33.0121 12.225 32.6309 12.2188ZM51.4004 14.0498C41.6004 14.0498 33.6504 21.9998 33.6504 31.7998V36C33.6504 36.85 34.3004 37.5 35.1504 37.5C44.9504 37.5 52.9004 29.55 52.9004 19.75V15.5498C52.9004 14.6998 52.2004 14.0498 51.4004 14.0498ZM35.4502 16C35.0524 16 34.6708 16.158 34.3895 16.4393C34.1082 16.7206 33.9502 17.1022 33.9502 17.5C33.9502 17.8978 34.1082 18.2794 34.3895 18.5607C34.6708 18.842 35.0524 19 35.4502 19C35.848 19 36.2296 18.842 36.5109 18.5607C36.7922 18.2794 36.9502 17.8978 36.9502 17.5C36.9502 17.1022 36.7922 16.7206 36.5109 16.4393C36.2296 16.158 35.848 16 35.4502 16V16ZM49.9004 17.1504C49.9004 17.1004 44.1004 33.7002 36.6504 34.4502V31.7998C36.6504 24.1998 42.4504 17.9004 49.9004 17.1504ZM20.9502 30.9004C20.1414 30.9004 19.3657 31.2218 18.7937 31.7937C18.2218 32.3657 17.9004 33.1414 17.9004 33.9502C17.9004 34.759 18.2218 35.5347 18.7937 36.1067C19.3657 36.6786 20.1414 36.9999 20.9502 37C21.759 36.9999 22.5347 36.6786 23.1067 36.1067C23.6786 35.5347 23.9999 34.759 24 33.9502C23.9999 33.1414 23.6786 32.3657 23.1067 31.7937C22.5347 31.2218 21.759 30.9004 20.9502 30.9004V30.9004ZM1.7998 37.7998C0.949805 37.7998 0.299805 38.4498 0.299805 39.2998C0.299805 40.1498 0.949805 40.7998 1.7998 40.7998H8.9502C9.0002 40.7998 9.0498 40.8496 9.0498 40.8496V41.2002V53.4004V53.9004H1.7998C0.949805 53.9004 0.299805 54.5504 0.299805 55.4004C0.299805 56.2504 0.949805 56.9004 1.7998 56.9004H9.0498C10.1998 56.9004 11.2002 56.2496 11.7002 55.3496L24.5 59.3496C24.65 59.3996 26.6498 59.9502 29.0498 59.9502C30.3498 59.9502 31.7002 59.7998 32.9502 59.2998C35.6002 58.2498 45.5502 52.9998 49.7002 50.7998C51.1502 50.0498 52.2502 48.2502 51.4502 46.4502C51.0002 45.3502 49.7002 43.5998 46.4502 44.5498H46.4004L40.5498 46.5C39.7498 46.75 39.3496 47.6004 39.5996 48.4004C39.8496 49.2004 40.7 49.5996 41.5 49.3496L47.25 47.4004C48.45 47.0504 48.5504 47.2996 48.6504 47.5996C48.7504 47.8496 48.3498 48.1504 48.2998 48.1504C41.6498 51.6504 33.8498 55.6998 31.7998 56.5498C29.1998 57.5998 25.3496 56.5 25.3496 56.5L15 53.2998V42.7998H16.5996C18.4996 42.7998 23.8498 43.4002 25.7998 46.2002C26.0998 46.6002 26.5498 46.8496 27.0498 46.8496H34.3496C34.9996 46.8496 35.6004 47.3004 35.6504 47.9004V48.0498V48.1504V48.25C35.6504 48.3 35.6496 48.3496 35.5996 48.3496C35.5996 48.3996 35.5998 48.4002 35.5498 48.4502C35.3498 48.8502 34.9502 49.1504 34.4502 49.1504H23.9004C23.0504 49.1504 22.4004 49.8004 22.4004 50.6504C22.4004 51.5004 23.0504 52.1504 23.9004 52.1504H34.5C35.95 52.1504 37.25 51.4 38 50.25L38.0498 50.2002C38.0998 50.1502 38.1004 50.0998 38.1504 50.0498C38.1504 49.9998 38.2002 49.9502 38.2002 49.9502C38.2502 49.8502 38.2996 49.7496 38.3496 49.5996V49.5498C38.3996 49.4498 38.4502 49.3502 38.4502 49.2002V49.0996C38.5002 48.9996 38.4998 48.8998 38.5498 48.7998V48.7002C38.5498 48.6002 38.5996 48.5004 38.5996 48.4004V48.2998C38.5996 48.0498 38.6496 47.7998 38.5996 47.5498C38.3996 45.3998 36.5498 43.75 34.2998 43.75H27.7998C24.2998 39.75 16.9504 39.7002 16.6504 39.7002H11.7998C11.3498 38.6002 10.2502 37.7998 8.9502 37.7998H1.7998Z" fill="#031E5F"/>
</svg>
