<svg width="50" height="56" viewBox="0 0 50 56" fill="none" xmlns="http://www.w3.org/2000/svg">
<path d="M25 0.4375C19.6625 0.4375 17.1689 12.6875 16.6439 23.1875C15.0689 24.2375 13.4939 25.2872 12.0502 26.3372C5.00642 20.7809 2.73108 16.7125 3.38733 15.5312C3.78108 14.875 6.09966 14.1316 12.1809 15.8816C12.8809 16.1003 13.6252 15.7066 13.8002 15.0066C14.0189 14.3066 13.6252 13.5623 12.9252 13.3873C6.58142 11.5498 2.51267 11.8125 1.11267 14.2188C-1.16233 18.2 5.70625 24.6313 9.90625 28C3.43125 33.2062 -0.724832 38.5437 1.11267 41.7812C1.90017 43.1375 3.5625 43.8372 5.96875 43.8372C7.85 43.8372 10.1691 43.4439 12.8816 42.6127C13.5816 42.3939 13.9753 41.6934 13.7566 40.9934C13.5378 40.2934 12.8373 39.8997 12.1373 40.1184C6.05608 41.9122 3.7375 41.125 3.34375 40.4688C2.99375 39.8563 3.3875 37.7128 7.28125 33.8191C10.825 30.2316 16.0747 26.3814 22.0247 22.9252C27.9747 19.4689 33.9686 16.8873 38.8248 15.5748C44.1623 14.1748 46.1747 14.8752 46.5247 15.4877C47.1809 16.6689 44.9064 20.7373 37.8627 26.2936C36.0252 24.9373 34.1003 23.6247 32.1316 22.3997C31.5191 22.0059 30.6872 22.1809 30.3372 22.8372C29.9434 23.4497 30.1184 24.2816 30.7747 24.6316C42.5872 32.0253 47.6191 38.6752 46.5691 40.4252C45.7816 41.7814 39.3502 41.7375 27.8002 36.0938C28.2814 35.8312 28.7186 35.5684 29.1998 35.3059C30.9061 34.2997 32.6123 33.2498 34.2311 32.1998C34.8436 31.8061 35.0189 30.9752 34.5814 30.3627C34.1439 29.7502 33.3559 29.5748 32.7434 30.0123C31.1684 31.0623 29.55 32.0687 27.8437 33.0312C26.6625 33.6875 25.4814 34.3439 24.3002 34.9564C23.6439 35.3064 23.4248 36.0939 23.7311 36.7064C23.8186 36.8814 23.9502 37.0128 24.0814 37.1003C24.1252 37.1441 24.1691 37.1873 24.2566 37.2311L24.3002 37.2747C29.8127 40.1622 35.2373 42.2628 39.4811 43.2253C41.1873 43.6191 42.6753 43.7936 43.9441 43.7936C46.3503 43.7936 47.9691 43.0939 48.7566 41.7377C50.7691 38.5002 46.4812 33.1187 40.0937 28C44.3375 24.5875 51.2061 18.2 48.8873 14.2188C46.0873 9.40625 32.6564 13.8247 20.8002 20.6497C20.3189 20.9122 19.8809 21.1748 19.3997 21.4811C20.2309 9.58108 23.1625 3.0625 25 3.0625C25.7437 3.0625 27.5816 4.68159 29.0691 10.8503C29.2441 11.5503 29.9439 11.9875 30.6439 11.8125C31.3439 11.6375 31.7811 10.9377 31.6061 10.2377C30.0748 3.80642 27.7562 0.4375 25 0.4375ZM17.8684 30.7122C17.1247 30.7559 16.6003 31.3691 16.6003 32.0691C16.8628 38.3253 17.7377 44.0566 19.0502 48.2566C20.5814 53.1128 22.5937 55.5625 25 55.5625C27.7562 55.5625 30.0748 52.1936 31.6061 45.7623C31.7811 45.0623 31.3439 44.3625 30.6439 44.1875C29.9439 44.0125 29.2441 44.4497 29.0691 45.1497C27.5816 51.3184 25.7437 52.9375 25 52.9375C22.9875 52.9375 19.7941 45.4561 19.2253 31.9811C19.1816 31.2373 18.5684 30.7122 17.8684 30.7122Z" fill="white"/>
</svg>
