<svg width="49" height="49" viewBox="0 0 49 49" fill="none" xmlns="http://www.w3.org/2000/svg">
<path d="M39.2902 0.959717C37.0481 0.959717 34.8066 1.81267 33.1003 3.51892C29.6878 6.93142 29.6878 12.4872 33.1003 15.8997C36.5128 19.3122 42.0685 19.3122 45.481 15.8997C48.9373 12.4434 48.9373 6.93142 45.481 3.51892C43.7748 1.81267 41.5324 0.959717 39.2902 0.959717ZM39.3125 5.75C41.4781 5.75 43.6434 6.71233 45.0871 8.63733C45.5684 9.24983 45.5684 10.1252 45.0871 10.7377C42.1996 14.5877 36.4253 14.5877 33.5378 10.7377C33.0566 10.1252 33.0566 9.24983 33.5378 8.63733C34.9816 6.71233 37.1468 5.75 39.3125 5.75ZM21.8125 6.1875C10.2187 6.1875 0.812456 15.5937 0.812456 27.1875C0.812456 32.3062 2.6503 37.1625 5.9753 40.9687L1.1628 45.9564C0.812798 46.3502 0.680864 46.9184 0.899614 47.3997C1.11836 47.8809 1.59996 48.1875 2.12496 48.1875H21.8125C33.4062 48.1875 42.8125 38.7812 42.8125 27.1875C42.8125 26.6625 42.8126 26.0941 42.7689 25.5691C42.7251 24.8253 42.0684 24.3 41.3684 24.3437C40.6246 24.3875 40.1001 24.9997 40.1439 25.7434C40.1876 26.2247 40.1875 26.7062 40.1875 27.1875C40.1875 37.3375 31.9625 45.5625 21.8125 45.5625H5.23104L8.73104 41.9309C9.25604 41.4059 9.21229 40.6187 8.73104 40.0937C5.31854 36.6375 3.43746 32.0437 3.43746 27.1875C3.43746 17.0375 11.6625 8.8125 21.8125 8.8125C22.2937 8.8125 22.7751 8.81233 23.3001 8.85608C24.0001 8.89983 24.656 8.37534 24.6998 7.63159C24.7435 6.93159 24.2191 6.27483 23.4753 6.23108C22.9066 6.18733 22.3812 6.1875 21.8125 6.1875ZM39.3176 7.5C38.7543 7.5 38.1968 7.71875 37.7812 8.15625C36.9062 9.03125 36.9062 10.3873 37.7812 11.2623C38.6562 12.1373 40.0123 12.1373 40.8873 11.2623C41.7623 10.3873 41.7623 9.03125 40.8873 8.15625C40.4498 7.71875 39.8809 7.5 39.3176 7.5ZM14.375 21.9375C13.6312 21.9375 13.0625 22.5062 13.0625 23.25C13.0625 23.9937 13.6312 24.5625 14.375 24.5625H29.25C29.9937 24.5625 30.5625 23.9937 30.5625 23.25C30.5625 22.5062 29.9937 21.9375 29.25 21.9375H14.375ZM14.375 29.8125C13.6312 29.8125 13.0625 30.3812 13.0625 31.125C13.0625 31.8687 13.6312 32.4375 14.375 32.4375H20.5C21.2437 32.4375 21.8125 31.8687 21.8125 31.125C21.8125 30.3812 21.2437 29.8125 20.5 29.8125H14.375ZM27.5 29.8125C26.7562 29.8125 26.1875 30.3812 26.1875 31.125C26.1875 31.8687 26.7562 32.4375 27.5 32.4375H29.6875C30.4312 32.4375 31 31.8687 31 31.125C31 30.3812 30.4312 29.8125 29.6875 29.8125H27.5Z" fill="#031E5F"/>
</svg>
