<svg width="64" height="64" viewBox="0 0 64 64" fill="none" xmlns="http://www.w3.org/2000/svg">
<path d="M1.7928 0.292816C1.4053 0.292816 1.018 0.443011 0.742999 0.743011C0.142999 1.34301 0.142999 2.29262 0.742999 2.84262L5.39241 7.54282C5.69241 7.84282 6.0932 7.99301 6.4432 7.99301C6.7932 7.99301 7.193 7.84282 7.493 7.54282C8.093 6.94282 8.093 5.99321 7.493 5.44321L2.84261 0.743011C2.56761 0.443011 2.1803 0.292816 1.7928 0.292816ZM11.7928 0.292816C11.395 0.292816 11.0134 0.450851 10.7321 0.732156C10.4508 1.01346 10.2928 1.39499 10.2928 1.79282C10.2928 2.19064 10.4508 2.57217 10.7321 2.85348C11.0134 3.13478 11.395 3.29282 11.7928 3.29282C12.1906 3.29282 12.5722 3.13478 12.8535 2.85348C13.1348 2.57217 13.2928 2.19064 13.2928 1.79282C13.2928 1.39499 13.1348 1.01346 12.8535 0.732156C12.5722 0.450851 12.1906 0.292816 11.7928 0.292816V0.292816ZM61.7928 0.292816C61.4053 0.292816 61.018 0.443011 60.743 0.743011L56.743 4.74301C56.143 5.34301 56.143 6.29262 56.743 6.84262C57.043 7.14262 57.4428 7.29282 57.7928 7.29282C58.1428 7.29282 58.5426 7.14262 58.8426 6.84262L62.8426 2.84262C63.4426 2.24262 63.4426 1.29301 62.8426 0.743011C62.5676 0.443011 62.1803 0.292816 61.7928 0.292816ZM23.7977 2.07504C23.2891 2.07036 22.7803 2.14282 22.2928 2.29282C20.9928 2.74282 19.8926 3.69301 19.3426 4.99301C18.9926 5.74301 19.3424 6.64321 20.1424 6.94321C20.7924 7.29321 21.643 6.94243 21.993 6.14243C22.193 5.64243 22.5924 5.29262 23.1424 5.09262C23.6424 4.94262 24.1924 4.99301 24.6424 5.24301L29.2928 7.99301C30.7928 8.89301 32.693 8.89301 34.243 7.99301L38.8924 5.24301C39.3424 4.99301 39.8924 4.89262 40.3924 5.09262C40.8924 5.24262 41.2928 5.64243 41.5428 6.14243L43.6932 11.0926C43.9432 11.6426 44.4926 11.993 45.0926 11.993C45.2926 11.993 45.4932 11.9426 45.6932 11.8426C46.4432 11.4926 46.793 10.6424 46.493 9.89243L44.3426 4.94321C43.7926 3.69321 42.6924 2.69282 41.3924 2.29282C40.0924 1.89282 38.6432 2.04301 37.4432 2.74301L32.7928 5.49301C32.1928 5.84301 31.4924 5.84301 30.8924 5.49301L26.243 2.74301C25.493 2.30551 24.6453 2.08286 23.7977 2.07504ZM13.0037 11.2889C12.9031 11.2791 12.7994 11.2803 12.6932 11.2928L10.1932 11.5428C8.7932 11.6928 7.4932 12.4428 6.6932 13.5428C5.8932 14.6928 5.59241 16.0932 5.89241 17.4432C6.04241 18.1432 6.64261 18.6424 7.34261 18.6424C7.44261 18.6424 7.5432 18.6426 7.6932 18.5926C8.4932 18.3926 8.99261 17.5928 8.84261 16.7928C8.74261 16.2428 8.84241 15.7428 9.14241 15.2928C9.44241 14.8428 9.943 14.5928 10.493 14.5428L12.993 14.2928C13.793 14.1928 14.4426 13.4924 14.3426 12.6424C14.2551 11.9424 13.7085 11.3573 13.0037 11.2889ZM53.1317 11.537C52.4269 11.5964 51.8803 12.1487 51.7928 12.8924C51.6928 13.6924 52.2924 14.4428 53.1424 14.5428C53.6924 14.5928 54.143 14.8428 54.493 15.2928C54.793 15.7428 54.9428 16.2428 54.7928 16.7928L53.6424 22.0926C53.2424 23.7926 53.8424 25.5928 55.1424 26.7928L59.1932 30.3924C59.5932 30.7424 59.8426 31.2428 59.8426 31.7928C59.8426 32.3428 59.6432 32.8432 59.1932 33.1932L55.1424 36.7928C53.8424 37.9428 53.2424 39.743 53.6424 41.493L54.7928 46.7928C54.8928 47.3428 54.793 47.8428 54.493 48.2928C54.143 48.6928 53.6924 48.9928 53.1424 49.0428C52.3424 49.1428 51.6928 49.8432 51.7928 50.6932C51.8428 51.4932 52.5428 52.0428 53.2928 52.0428H53.4432C54.8432 51.8928 56.0924 51.1928 56.8924 50.0428C57.6924 48.8928 57.9932 47.4924 57.6932 46.1424L56.5428 40.8426C56.3928 40.1926 56.6424 39.4928 57.1424 39.0428L61.1932 35.4432C62.2432 34.5432 62.8426 33.1928 62.8426 31.7928C62.8426 30.3928 62.2432 29.0924 61.1932 28.1424L57.1424 24.5428C56.6424 24.0928 56.3928 23.393 56.5428 22.743L57.6932 17.4432C57.9932 16.0932 57.6924 14.6428 56.8924 13.5428C56.0924 12.3928 54.7932 11.6928 53.4432 11.5428C53.337 11.5303 53.2324 11.5285 53.1317 11.537ZM31.7928 14.7928C22.3928 14.7928 14.7928 22.3928 14.7928 31.7928C14.7928 41.1928 22.3928 48.7928 31.7928 48.7928C41.1928 48.7928 48.7928 41.1928 48.7928 31.7928C48.7928 22.3928 41.1928 14.7928 31.7928 14.7928ZM31.7928 18.2928C32.6428 18.2928 33.2928 18.9428 33.2928 19.7928C33.2928 20.6428 32.6428 21.2928 31.7928 21.2928C31.1428 21.2928 30.4428 21.343 29.7928 21.493C29.6928 21.493 29.593 21.5428 29.493 21.5428C28.793 21.5428 28.1428 21.0426 28.0428 20.3426C27.8928 19.4926 28.3932 18.6928 29.1932 18.5428C30.0432 18.3928 30.8928 18.2928 31.7928 18.2928ZM8.44124 20.9159C8.34241 20.915 8.24241 20.9245 8.14241 20.9432C7.34241 21.1432 6.843 21.943 6.993 22.743C7.143 23.393 6.89241 24.0928 6.39241 24.5428L2.34261 28.1424C1.34261 29.0924 0.742999 30.3928 0.742999 31.7928C0.742999 33.1928 1.34241 34.4932 2.39241 35.4432L6.4432 39.0428C6.9432 39.4928 7.1928 40.1926 7.0428 40.8426L5.89241 46.1424C5.59241 47.4924 5.8932 48.9428 6.6932 50.0428C7.4932 51.1928 8.79241 51.8928 10.1424 52.0428L15.5428 52.5428C16.1928 52.5928 16.7926 53.0424 17.0926 53.6424L19.243 58.5926C19.493 59.1426 20.0424 59.493 20.6424 59.493C20.8424 59.493 21.043 59.4426 21.243 59.3426C21.993 58.9926 22.3428 58.1424 22.0428 57.3924L19.8924 52.4432C19.1924 50.8432 17.6424 49.6928 15.8924 49.5428L10.493 49.0428C9.943 48.9928 9.49241 48.7428 9.14241 48.2928C8.79241 47.8428 8.6928 47.2928 8.7928 46.7928L9.9432 41.493C10.3432 39.793 9.7432 37.9928 8.4432 36.7928L4.39241 33.1932C3.99241 32.8432 3.743 32.3428 3.743 31.7928C3.743 31.2428 3.94241 30.7424 4.39241 30.3924L8.4432 26.7928C9.7432 25.6428 10.3432 23.8426 9.9432 22.0926C9.7682 21.3926 9.13304 20.922 8.44124 20.9159ZM21.7889 23.6649C22.0822 23.6661 22.3799 23.7557 22.6424 23.9432C23.3424 24.3932 23.5428 25.3428 23.0428 26.0428C21.8928 27.7428 21.2928 29.7428 21.2928 31.7928C21.2928 34.5928 22.3924 37.2432 24.3924 39.1932C24.9924 39.7932 24.9924 40.7428 24.3924 41.2928C24.0924 41.6428 23.6928 41.7928 23.2928 41.7928C22.8928 41.7928 22.543 41.6426 22.243 41.3426C19.693 38.7926 18.2928 35.3928 18.2928 31.7928C18.2928 29.1428 19.0428 26.5426 20.5428 24.3426C20.8241 23.9051 21.3001 23.6629 21.7889 23.6649ZM45.0995 51.5565C44.5487 51.5424 44.0055 51.8807 43.743 52.4432L41.5926 57.3924C41.3926 57.8924 40.9932 58.2432 40.4432 58.4432C39.9432 58.5932 39.3932 58.5428 38.9432 58.2928L34.2928 55.5428C32.7928 54.6428 30.8926 54.6428 29.3426 55.5428L24.6932 58.2928C23.9932 58.6928 23.7424 59.6426 24.1424 60.3426C24.5424 61.0426 25.4932 61.2924 26.1932 60.8924L30.8426 58.1424C31.4426 57.7924 32.143 57.7924 32.743 58.1424L37.3924 60.8924C38.1424 61.3424 38.9926 61.5428 39.8426 61.5428C40.3426 61.5428 40.8426 61.4428 41.3426 61.2928C42.6426 60.8428 43.7428 59.8926 44.2928 58.5926L46.4432 53.6424C46.7932 52.8924 46.4424 51.9932 45.6424 51.6932C45.4674 51.6057 45.283 51.5612 45.0995 51.5565ZM56.4745 55.0428C56.0932 55.0428 55.7182 55.193 55.4432 55.493C54.8432 56.093 54.8432 57.0426 55.4432 57.5926L60.743 62.8426C61.043 63.1426 61.3928 63.2928 61.7928 63.2928C62.1928 63.2928 62.5426 63.1426 62.8426 62.8426C63.4426 62.2426 63.4426 61.293 62.8426 60.743L57.5428 55.493C57.2428 55.193 56.8557 55.0428 56.4745 55.0428Z" fill="#031E5F"/>
</svg>
