<svg width="56" height="46" viewBox="0 0 56 46" fill="none" xmlns="http://www.w3.org/2000/svg">
<path d="M23.6788 0.283358C22.5531 0.256217 21.4988 0.487069 20.5514 0.994296C18.5826 2.0443 17.3574 4.10089 16.8762 6.81339L7.2512 21.0757C6.8137 21.6882 6.46353 22.3881 6.20103 23.0881C5.19478 25.9756 5.98211 28.6006 7.55711 31.6193C7.86336 32.2318 7.73279 32.9756 7.16404 33.3693C6.94529 33.5443 6.68228 33.5881 6.41978 33.5881C5.93853 33.5881 5.54512 33.282 5.23887 32.8882C3.75137 30.832 3.4012 28.2943 3.3137 27.2443C3.3137 26.9818 3.05154 26.8075 2.78904 26.8512C2.52654 26.895 2.30779 26.9825 2.13279 27.07C1.52029 27.3762 0.514041 28.2945 0.601541 30.482C0.689041 30.832 0.732107 31.1821 0.775857 31.5321C0.950857 32.5821 1.34529 33.6762 1.91404 34.7262C2.65779 36.1262 3.66353 37.3509 4.66978 38.0946C5.63228 38.7946 6.46336 39.0132 7.11961 39.0132C7.68836 39.0132 8.08228 38.8386 8.38853 38.7073C8.65103 38.5761 9.00086 38.3134 9.30711 37.8759H13.4198V41.3759C13.4198 43.5634 15.1698 45.3134 17.3573 45.3134H25.2323C27.4198 45.3134 29.1698 43.5634 29.1698 41.3759V37.8759H33.4576C34.8139 38.4884 36.1264 38.7945 37.3951 38.7945C38.4451 38.7945 39.451 38.5759 40.326 38.0946C43.0823 36.6509 44.4387 33.1509 44.2199 28.4696L48.0703 29.2131C48.1578 29.2131 48.2451 29.2575 48.3326 29.2575C48.9889 29.2575 49.6014 28.7321 49.6451 28.0321C49.6889 27.3759 49.2076 26.7637 48.5514 26.6325L39.6262 24.8825C38.8387 24.7075 38.0514 25.32 38.0514 26.195C38.0514 26.8512 38.5326 27.3762 39.1451 27.5075L41.4634 27.945C41.8134 31.8825 40.8948 34.8131 39.0135 35.7756C35.5573 37.6131 28.3824 33.0637 23.2199 23.3512C18.0574 13.6825 18.3196 5.15089 21.7759 3.31339C24.7946 1.69464 30.264 4.97623 34.7265 11.1012C35.1203 11.6262 35.7762 11.8448 36.3449 11.5823C37.1324 11.2323 37.3509 10.2698 36.8696 9.61356C32.6313 3.76883 27.6993 0.380289 23.6788 0.283358ZM37.8164 0.443148C37.3955 0.437594 36.9687 0.638827 36.6953 0.994296L35.5571 2.56998C35.1196 3.13873 35.2951 3.96964 35.8639 4.40714C36.0826 4.58214 36.3448 4.66947 36.6073 4.66947C37.001 4.66947 37.4387 4.49498 37.6574 4.10123L38.8384 2.52555C39.2759 1.9568 39.1012 1.12589 38.5324 0.688388C38.3192 0.524325 38.0689 0.446481 37.8164 0.443148ZM45.5521 10.1963C45.2991 10.1745 45.0351 10.2257 44.789 10.357L38.2265 13.857C38.2703 13.9007 38.2265 13.9005 38.2265 13.9005C38.1828 13.9005 38.1823 13.9012 38.1385 13.945C37.4823 14.295 37.2639 15.0823 37.6139 15.7386C38.6639 17.7073 39.4946 19.6761 40.1509 21.6448C40.3259 22.2136 40.8512 22.5634 41.3762 22.5634C41.5074 22.5634 41.6389 22.5637 41.7701 22.4762C42.4701 22.2575 42.8203 21.5134 42.6015 20.8134C42.0328 19.1071 41.3326 17.3568 40.4576 15.6505L46.0571 12.6761C46.7134 12.3261 46.9326 11.5387 46.5826 10.8825C46.3639 10.4723 45.9738 10.2326 45.5521 10.1963ZM29.6765 13.3947C28.6181 13.3834 27.5428 13.6305 26.5448 14.1637C26.501 14.2075 26.4578 14.2071 26.414 14.2509L26.1509 14.3825C24.1821 15.4325 24.0512 18.6255 25.8449 21.9943C27.2887 24.6631 29.3014 26.2821 31.0514 26.2821C31.4889 26.2821 31.9265 26.195 32.3203 25.9762C32.4078 25.9325 32.4953 25.8884 32.539 25.8446C32.5828 25.8446 32.6259 25.8011 32.7134 25.8011C34.2446 24.9698 35.3824 23.6134 35.9074 21.9071C36.4324 20.2446 36.2576 18.4507 35.4264 16.9195C34.2533 14.6937 32.005 13.4195 29.6765 13.3947ZM53.8014 27.6271C53.4623 27.6271 53.1234 27.7479 52.8828 27.9886C52.6203 28.2511 52.4889 28.5571 52.4889 28.9071C52.4889 28.9946 52.4887 29.082 52.5324 29.1695C52.4449 29.3007 52.4887 29.3881 52.5324 29.4318C52.5762 29.5193 52.6203 29.6068 52.664 29.6506C52.7078 29.7381 52.7509 29.7818 52.8384 29.8693C53.1009 30.1318 53.4078 30.2632 53.7578 30.2632C54.1078 30.2632 54.4576 30.1318 54.6764 29.8693C54.7201 29.8256 54.8078 29.7381 54.8515 29.6506C54.8953 29.5631 54.9385 29.5193 54.9823 29.4318C55.026 29.3443 55.0265 29.257 55.0703 29.1695C55.0703 29.082 55.1139 28.9946 55.1139 28.9071C55.1139 28.5571 54.9824 28.2073 54.7199 27.9886C54.4793 27.7479 54.1404 27.6271 53.8014 27.6271ZM16.0012 37.8759H26.5012V41.3759C26.5012 42.1196 25.9324 42.6884 25.1887 42.6884H17.3137C16.5699 42.6884 16.0012 42.1196 16.0012 41.3759V37.8759Z" fill="white"/>
</svg>
